# Blender 5.1.2
# www.blender.org
mtllib Sword.mtl
o Sword
v 0.000000 0.000000 0.000000
v 0.131695 0.100607 0.095681
v -0.050302 0.100607 0.154816
v -0.162785 0.100607 0.000000
v -0.050302 0.100607 -0.154816
v 0.131695 0.100607 -0.095681
v 0.050302 0.263393 0.154816
v -0.131695 0.263393 0.095681
v -0.131695 0.263393 -0.095681
v 0.050302 0.263393 -0.154816
v 0.162785 0.263393 0.000000
v 0.000000 0.364000 0.000000
v 0.000000 0.252000 -0.105000
v 0.000000 1.022000 -0.105000
v 0.090933 0.252000 -0.052500
v 0.090933 1.022000 -0.052500
v 0.090933 0.252000 0.052500
v 0.090933 1.022000 0.052500
v 0.000000 0.252000 0.105000
v 0.000000 1.022000 0.105000
v -0.090933 0.252000 0.052500
v -0.090933 1.022000 0.052500
v -0.090933 0.252000 -0.052500
v -0.090933 1.022000 -0.052500
v -0.472500 0.978250 0.105000
v -0.472500 1.170750 0.105000
v -0.472500 0.978250 -0.105000
v -0.472500 1.170750 -0.105000
v 0.472500 0.978250 0.105000
v 0.472500 1.170750 0.105000
v 0.472500 0.978250 -0.105000
v 0.472500 1.170750 -0.105000
v -0.390366 1.068736 -0.122500
v -0.358660 1.187062 0.000000
v -0.390366 1.068736 0.122500
v -0.422071 0.950410 0.000000
v -0.694632 1.150264 0.000000
v 0.390366 1.068736 -0.122500
v 0.422071 0.950410 0.000000
v 0.390366 1.068736 0.122500
v 0.358660 1.187062 0.000000
v 0.694632 1.150264 0.000000
v 0.000000 1.162000 -0.113050
v 0.000000 3.752000 -0.042560
v 0.297500 1.162000 0.000000
v 0.112000 3.752000 0.000000
v 0.000000 1.162000 0.113050
v 0.000000 3.752000 0.042560
v -0.297500 1.162000 0.000000
v -0.112000 3.752000 0.000000
v 0.000000 3.752000 -0.042560
v 0.112000 3.752000 0.000000
v 0.000000 3.752000 0.042560
v -0.112000 3.752000 0.000000
v 0.000000 4.137000 0.000000
vn 0.1876 -0.7947 0.5774
vn 0.6071 -0.7947 -0.0000
vn -0.4911 -0.7947 0.3568
vn -0.4911 -0.7947 -0.3568
vn 0.1876 -0.7947 -0.5774
vn 0.9822 -0.1876 -0.0000
vn 0.3035 -0.1876 0.9342
vn -0.7946 -0.1876 0.5774
vn -0.7946 -0.1876 -0.5774
vn 0.3035 -0.1876 -0.9342
vn 0.7946 0.1876 0.5774
vn -0.3035 0.1876 0.9342
vn -0.9822 0.1876 -0.0000
vn -0.3035 0.1876 -0.9342
vn 0.7946 0.1876 -0.5774
vn 0.4911 0.7947 0.3568
vn -0.1876 0.7947 0.5774
vn -0.6071 0.7947 -0.0000
vn -0.1876 0.7947 -0.5774
vn 0.4911 0.7947 -0.3568
vn 0.5000 -0.0000 -0.8660
vn 1.0000 -0.0000 -0.0000
vn 0.5000 -0.0000 0.8660
vn -0.5000 -0.0000 0.8660
vn -0.0000 1.0000 -0.0000
vn -1.0000 -0.0000 -0.0000
vn -0.5000 -0.0000 -0.8660
vn -0.0000 -1.0000 -0.0000
vn -0.0000 -0.0000 -1.0000
vn -0.0000 -0.0000 1.0000
vn -0.0796 0.7272 -0.6818
vn -0.0796 0.7272 0.6818
vn 0.9659 -0.2588 -0.0000
vn -0.4326 -0.5899 0.6818
vn -0.4326 -0.5899 -0.6818
vn 0.4326 -0.5899 -0.6818
vn 0.4326 -0.5899 0.6818
vn -0.9659 -0.2588 -0.0000
vn 0.0796 0.7272 0.6818
vn 0.0796 0.7272 -0.6818
vn 0.3551 0.0254 -0.9345
vn 0.3551 0.0254 0.9345
vn -0.3551 0.0254 0.9345
vn -0.3551 0.0254 -0.9345
vn 0.3533 0.1028 -0.9298
vn 0.3533 0.1028 0.9298
vn -0.3533 0.1028 0.9298
vn -0.3533 0.1028 -0.9298
vt 0.181819 0.000000
vt 0.272728 0.157461
vt 0.090910 0.157461
vt 0.363637 0.000000
vt 0.454546 0.157461
vt 0.909091 0.000000
vt 1.000000 0.157461
vt 0.818182 0.157461
vt 0.727273 0.000000
vt 0.636364 0.157461
vt 0.545455 0.000000
vt 0.363637 0.314921
vt 0.181819 0.314921
vt 0.909091 0.314921
vt 0.727273 0.314921
vt 0.545455 0.314921
vt 0.000000 0.314921
vt 0.272728 0.472382
vt 0.090910 0.472382
vt 0.818182 0.472382
vt 0.636364 0.472382
vt 0.454546 0.472382
vt 1.000000 1.000000
vt 0.833333 0.500000
vt 1.000000 0.500000
vt 0.833333 1.000000
vt 0.666667 0.500000
vt 0.666667 1.000000
vt 0.500000 0.500000
vt 0.500000 1.000000
vt 0.333333 0.500000
vt 0.042154 0.130000
vt 0.250000 0.010000
vt 0.457846 0.130000
vt 0.333333 1.000000
vt 0.166667 0.500000
vt 0.166667 1.000000
vt -0.000000 0.500000
vt 0.750000 0.010000
vt 0.542154 0.130000
vt 0.542154 0.370000
vt 0.625000 0.000000
vt 0.375000 0.250000
vt 0.375000 0.000000
vt 0.625000 0.250000
vt 0.375000 0.500000
vt 0.625000 0.500000
vt 0.375000 0.750000
vt 0.625000 0.750000
vt 0.375000 1.000000
vt 0.125000 0.750000
vt 0.125000 0.500000
vt 0.875000 0.500000
vt 0.250000 0.490000
vt 0.250000 0.250000
vt 0.490000 0.250000
vt 0.250000 0.010000
vt 0.990000 0.250000
vt 0.510000 0.250000
vt 0.750000 0.490000
vt 0.010000 0.250000
vt 0.750000 1.000000
vt 0.750000 0.500000
vt 0.500000 0.500000
vt 0.250000 0.490000
vt 0.490000 0.250000
vt 0.250000 1.000000
vt 0.250000 0.500000
vt 0.000000 0.500000
vt 0.750000 0.490000
vt 0.010000 0.250000
vt 0.457846 0.370000
vt 0.042154 0.370000
vt -0.000000 1.000000
vt 0.957846 0.370000
vt 0.957846 0.130000
vt 0.625000 1.000000
vt 0.875000 0.750000
vt 0.750000 0.010000
vt 0.500000 1.000000
vt 0.000000 1.000000
s 0
usemtl fam_gold
f 1/1/1 2/2/1 3/3/1
f 2/2/2 1/4/2 6/5/2
f 1/6/3 3/7/3 4/8/3
f 1/9/4 4/8/4 5/10/4
f 1/11/5 5/10/5 6/5/5
f 2/2/6 6/5/6 11/12/6
f 3/3/7 2/2/7 7/13/7
f 4/8/8 3/7/8 8/14/8
f 5/10/9 4/8/9 9/15/9
f 6/5/10 5/10/10 10/16/10
f 2/2/11 11/12/11 7/13/11
f 3/3/12 7/13/12 8/17/12
f 4/8/13 8/14/13 9/15/13
f 5/10/14 9/15/14 10/16/14
f 6/5/15 10/16/15 11/12/15
f 7/13/16 11/12/16 12/18/16
f 8/17/17 7/13/17 12/19/17
f 9/15/18 8/14/18 12/20/18
f 10/16/19 9/15/19 12/21/19
f 11/12/20 10/16/20 12/22/20
f 26/42/26 27/43/26 25/44/26
f 28/45/29 31/46/29 27/43/29
f 32/47/22 29/48/22 31/46/22
f 30/49/30 25/50/30 29/48/30
f 31/46/28 25/51/28 27/52/28
f 28/53/25 30/49/25 32/47/25
f 33/54/31 37/55/31 34/56/31
f 34/56/32 37/55/32 35/57/32
f 34/58/33 36/59/33 33/60/33
f 35/57/34 37/55/34 36/61/34
f 36/61/35 37/55/35 33/54/35
f 38/54/36 42/55/36 39/56/36
f 39/56/37 42/55/37 40/57/37
f 39/58/38 41/59/38 38/60/38
f 40/57/39 42/55/39 41/61/39
f 41/61/40 42/55/40 38/54/40
f 26/42/26 28/45/26 27/43/26
f 28/45/29 32/47/29 31/46/29
f 32/47/22 30/49/22 29/48/22
f 30/49/30 26/77/30 25/50/30
f 31/46/28 29/48/28 25/51/28
f 28/53/25 26/78/25 30/49/25
f 34/58/33 35/79/33 36/59/33
f 39/58/38 40/79/38 41/59/38
usemtl fam_leather
f 14/23/21 15/24/21 13/25/21
f 16/26/22 17/27/22 15/24/22
f 18/28/23 19/29/23 17/27/23
f 20/30/24 21/31/24 19/29/24
f 22/32/25 20/33/25 18/34/25
f 22/35/26 23/36/26 21/31/26
f 24/37/27 13/38/27 23/36/27
f 19/39/28 21/40/28 23/41/28
f 14/23/21 16/26/21 15/24/21
f 16/26/22 18/28/22 17/27/22
f 18/28/23 20/30/23 19/29/23
f 20/30/24 22/35/24 21/31/24
f 18/34/25 16/72/25 22/32/25
f 16/72/25 14/65/25 22/32/25
f 14/65/25 24/73/25 22/32/25
f 22/35/26 24/37/26 23/36/26
f 24/37/27 14/74/27 13/38/27
f 23/41/28 13/70/28 19/39/28
f 13/70/28 15/75/28 19/39/28
f 15/75/28 17/76/28 19/39/28
usemtl fam_steel
f 43/25/41 46/62/41 45/63/41
f 46/62/42 47/64/42 45/63/42
f 44/65/25 48/33/25 46/66/25
f 47/64/43 50/67/43 49/68/43
f 50/67/44 43/69/44 49/68/44
f 43/70/28 47/39/28 49/59/28
f 51/65/45 55/55/45 52/66/45
f 52/66/46 55/55/46 53/33/46
f 51/70/28 53/39/28 54/59/28
f 53/33/47 55/55/47 54/71/47
f 54/71/48 55/55/48 51/65/48
f 43/25/41 44/23/41 46/62/41
f 46/62/42 48/80/42 47/64/42
f 44/65/25 50/71/25 48/33/25
f 47/64/43 48/80/43 50/67/43
f 50/67/44 44/81/44 43/69/44
f 43/70/28 45/58/28 47/39/28
f 51/70/28 52/58/28 53/39/28
