# Blender 5.1.2
# www.blender.org
mtllib Axe.mtl
o Axe
v -0.009878 0.060156 -0.474606
v 0.011126 3.002966 -0.469954
v 0.099728 0.085104 -0.434613
v 0.090029 3.005377 -0.409121
v 0.072121 0.049386 -0.336643
v 0.095268 3.001858 -0.310336
v 0.003599 0.070521 -0.282678
v 0.000555 3.014213 -0.279065
v -0.103128 0.049861 -0.316010
v -0.083871 2.999170 -0.315700
v -0.096149 0.054386 -0.440864
v -0.069795 2.997559 -0.439265
v -0.001806 0.000000 -0.373331
v 0.099498 0.077390 -0.299731
v -0.040500 0.077390 -0.254242
v -0.127025 0.077390 -0.373331
v -0.040500 0.077390 -0.492421
v 0.099498 0.077390 -0.446932
v 0.036888 0.202610 -0.254242
v -0.103110 0.202610 -0.299731
v -0.103110 0.202610 -0.446932
v 0.036888 0.202610 -0.492421
v 0.123414 0.202610 -0.373331
v -0.001806 0.280000 -0.373331
v -0.098056 2.502500 0.046669
v -0.098056 2.957500 0.046669
v -0.098056 2.502500 -0.513331
v -0.098056 2.957500 -0.513331
v 0.094444 2.502500 0.046669
v 0.094444 2.957500 0.046669
v 0.094444 2.502500 -0.513331
v 0.094444 2.957500 -0.513331
v -0.001898 2.236825 0.729323
v -0.004819 2.565026 -0.034149
v 0.144962 2.737876 0.751961
v 0.047835 2.748615 -0.030712
v 0.004810 3.209426 0.739121
v -0.004535 2.908723 -0.003405
v -0.144963 2.741397 0.758330
v -0.046229 2.738941 -0.050140
v -0.089306 2.572500 -0.513331
v -0.089306 2.887500 -0.513331
v -0.089306 2.572500 -0.758331
v -0.089306 2.887500 -0.758331
v 0.085694 2.572500 -0.513331
v 0.085694 2.887500 -0.513331
v 0.085694 2.572500 -0.758331
v 0.085694 2.887500 -0.758331
v -0.001806 2.012500 -0.499331
v -0.001806 2.327500 -0.499331
v 0.107313 2.012500 -0.436331
v 0.107313 2.327500 -0.436331
v 0.107313 2.012500 -0.310331
v 0.107313 2.327500 -0.310331
v -0.001806 2.012500 -0.247331
v -0.001806 2.327500 -0.247331
v -0.110925 2.012500 -0.310331
v -0.110925 2.327500 -0.310331
v -0.110925 2.012500 -0.436331
v -0.110925 2.327500 -0.436331
vn 0.3430 -0.0010 -0.9393
vn 0.9634 -0.0099 0.2679
vn 0.6164 -0.0118 0.7873
vn -0.2984 0.0018 0.9544
vn -0.1621 0.9863 -0.0313
vn -0.9984 0.0065 -0.0556
vn -0.3645 0.0038 -0.9312
vn 0.1974 -0.9800 -0.0245
vn 0.1876 -0.7947 0.5774
vn 0.6071 -0.7947 -0.0000
vn -0.4911 -0.7947 0.3568
vn -0.4911 -0.7947 -0.3568
vn 0.1876 -0.7947 -0.5774
vn 0.9822 -0.1876 -0.0000
vn 0.3035 -0.1876 0.9342
vn -0.7946 -0.1876 0.5774
vn -0.7946 -0.1876 -0.5774
vn 0.3035 -0.1876 -0.9342
vn 0.7946 0.1876 0.5774
vn -0.3035 0.1876 0.9342
vn -0.9822 0.1876 -0.0000
vn -0.3035 0.1876 -0.9342
vn 0.7946 0.1876 -0.5774
vn 0.4911 0.7947 0.3568
vn -0.1876 0.7947 0.5774
vn -0.6071 0.7947 -0.0000
vn -0.1876 0.7947 -0.5774
vn 0.4911 0.7947 -0.3568
vn -1.0000 -0.0000 -0.0000
vn -0.0000 -0.0000 -1.0000
vn 1.0000 -0.0000 -0.0000
vn -0.0000 -0.0000 1.0000
vn -0.0000 -1.0000 -0.0000
vn -0.0000 1.0000 -0.0000
vn 0.9540 -0.2741 -0.1215
vn 0.9519 0.2795 -0.1252
vn 0.1754 0.2210 -0.9594
vn -0.9480 0.2989 -0.1091
vn -0.9578 -0.2652 -0.1104
vn 0.0213 -0.0514 0.9985
vn 0.5000 -0.0000 -0.8660
vn 0.5000 -0.0000 0.8660
vn -0.5000 -0.0000 0.8660
vn -0.5000 -0.0000 -0.8660
vn 0.6104 0.0089 -0.7920
vn 0.9986 0.0038 -0.0528
vn 0.3134 -0.0008 0.9496
vn -0.3978 -0.0015 0.9175
vn 0.1384 0.9900 0.0279
vn -0.0547 0.9980 0.0315
vn -0.0318 0.9955 -0.0895
vn -0.9935 0.0090 -0.1133
vn -0.3548 0.0040 -0.9349
vn 0.0852 -0.9952 0.0478
vn 0.3009 -0.9201 -0.2507
vn -0.2437 -0.9674 0.0694
vn 0.9546 -0.2715 -0.1222
vn 0.9387 0.3261 -0.1120
vn 0.2061 -0.0408 -0.9777
vn -0.9564 0.2672 -0.1176
vn -0.9637 -0.2402 -0.1170
vn 0.0224 0.0339 0.9992
vt 1.000000 1.000000
vt 0.833333 0.500000
vt 1.000000 0.500000
vt 0.666667 1.000000
vt 0.666667 0.500000
vt 0.500000 0.500000
vt 0.333333 1.000000
vt 0.333333 0.500000
vt 0.042154 0.370000
vt 0.042154 0.130000
vt 0.250000 0.010000
vt 0.166667 0.500000
vt 0.166667 1.000000
vt -0.000000 0.500000
vt 0.750000 0.010000
vt 0.542154 0.130000
vt 0.542154 0.370000
vt 0.181819 0.000000
vt 0.272728 0.157461
vt 0.090910 0.157461
vt 0.363637 0.000000
vt 0.454546 0.157461
vt 0.909091 0.000000
vt 1.000000 0.157461
vt 0.818182 0.157461
vt 0.727273 0.000000
vt 0.636364 0.157461
vt 0.545455 0.000000
vt 0.363637 0.314921
vt 0.181819 0.314921
vt 0.909091 0.314921
vt 0.727273 0.314921
vt 0.545455 0.314921
vt 0.000000 0.314921
vt 0.272728 0.472382
vt 0.090910 0.472382
vt 0.818182 0.472382
vt 0.636364 0.472382
vt 0.454546 0.472382
vt 0.625000 0.000000
vt 0.375000 0.250000
vt 0.375000 0.000000
vt 0.625000 0.250000
vt 0.375000 0.500000
vt 0.625000 0.500000
vt 0.375000 0.750000
vt 0.625000 0.750000
vt 0.375000 1.000000
vt 0.125000 0.750000
vt 0.125000 0.500000
vt 0.875000 0.500000
vt 0.750000 0.500000
vt 0.500000 1.000000
vt 0.500000 0.500000
vt 0.490000 0.250000
vt 0.010000 0.250000
vt 0.250000 0.500000
vt 0.000000 1.000000
vt 0.000000 0.500000
vt 0.990000 0.250000
vt 0.510000 0.250000
vt 0.750000 0.490000
vt 0.833333 1.000000
vt 0.500000 1.000000
vt 0.250000 0.490000
vt 0.042154 0.130000
vt 0.457846 0.130000
vt 0.957846 0.370000
vt 0.457846 0.370000
vt -0.000000 1.000000
vt 0.750000 0.490000
vt 0.957846 0.130000
vt 0.625000 1.000000
vt 0.875000 0.750000
vt 0.750000 1.000000
vt 0.250000 1.000000
vt 0.750000 0.010000
vt 0.042154 0.370000
s 0
usemtl fam_wood
f 2/1/1 3/2/1 1/3/1
f 3/2/2 6/4/2 5/5/2
f 6/4/3 7/6/3 5/5/3
f 7/6/4 10/7/4 9/8/4
f 12/9/5 10/10/5 8/11/5
f 10/7/6 11/12/6 9/8/6
f 12/13/7 1/14/7 11/12/7
f 7/15/8 9/16/8 11/17/8
f 2/1/45 4/63/45 3/2/45
f 3/2/46 4/63/46 6/4/46
f 6/4/47 8/64/47 7/6/47
f 7/6/48 8/64/48 10/7/48
f 6/67/49 4/69/49 8/11/49
f 4/69/50 2/65/50 12/9/50
f 8/11/51 4/69/51 12/9/51
f 10/7/52 12/13/52 11/12/52
f 12/13/53 2/70/53 1/14/53
f 11/17/54 1/71/54 7/15/54
f 1/71/55 3/68/55 5/72/55
f 7/15/56 1/71/56 5/72/56
usemtl fam_wood_dark
f 13/18/9 14/19/9 15/20/9
f 14/19/10 13/21/10 18/22/10
f 13/23/11 15/24/11 16/25/11
f 13/26/12 16/25/12 17/27/12
f 13/28/13 17/27/13 18/22/13
f 14/19/14 18/22/14 23/29/14
f 15/20/15 14/19/15 19/30/15
f 16/25/16 15/24/16 20/31/16
f 17/27/17 16/25/17 21/32/17
f 18/22/18 17/27/18 22/33/18
f 14/19/19 23/29/19 19/30/19
f 15/20/20 19/30/20 20/34/20
f 16/25/21 20/31/21 21/32/21
f 17/27/22 21/32/22 22/33/22
f 18/22/23 22/33/23 23/29/23
f 19/30/24 23/29/24 24/35/24
f 20/34/25 19/30/25 24/36/25
f 21/32/26 20/31/26 24/37/26
f 22/33/27 21/32/27 24/38/27
f 23/29/28 22/33/28 24/39/28
usemtl fam_iron
f 26/40/29 27/41/29 25/42/29
f 28/43/30 31/44/30 27/41/30
f 32/45/31 29/46/31 31/44/31
f 30/47/32 25/48/32 29/46/32
f 31/44/33 25/49/33 27/50/33
f 28/51/34 30/47/34 32/45/34
f 42/40/29 43/41/29 41/42/29
f 44/43/30 47/44/30 43/41/30
f 48/45/31 45/46/31 47/44/31
f 46/47/32 41/48/32 45/46/32
f 47/44/33 41/49/33 43/50/33
f 44/51/34 46/47/34 48/45/34
f 26/40/29 28/43/29 27/41/29
f 28/43/30 32/45/30 31/44/30
f 32/45/31 30/47/31 29/46/31
f 30/47/32 26/73/32 25/48/32
f 31/44/33 29/46/33 25/49/33
f 28/51/34 26/74/34 30/47/34
f 42/40/29 44/43/29 43/41/29
f 44/43/30 48/45/30 47/44/30
f 48/45/31 46/47/31 45/46/31
f 46/47/32 42/73/32 41/48/32
f 47/44/33 45/46/33 41/49/33
f 44/51/34 42/74/34 46/47/34
usemtl fam_steel
f 34/1/35 35/52/35 33/3/35
f 35/52/36 38/53/36 37/54/36
f 36/55/37 40/56/37 38/11/37
f 38/53/38 39/57/38 37/54/38
f 39/57/39 34/58/39 33/59/39
f 35/60/40 39/61/40 33/62/40
f 34/1/57 36/75/57 35/52/57
f 35/52/58 36/75/58 38/53/58
f 36/55/59 34/65/59 40/56/59
f 38/53/60 40/76/60 39/57/60
f 39/57/61 40/76/61 34/58/61
f 35/60/62 37/77/62 39/61/62
usemtl fam_leather
f 50/1/41 51/2/41 49/3/41
f 52/63/31 53/5/31 51/2/31
f 54/4/42 55/6/42 53/5/42
f 56/64/43 57/8/43 55/6/43
f 50/65/34 58/66/34 54/67/34
f 58/7/29 59/12/29 57/8/29
f 60/13/44 49/14/44 59/12/44
f 51/68/33 55/15/33 59/17/33
f 50/1/41 52/63/41 51/2/41
f 52/63/31 54/4/31 53/5/31
f 54/4/42 56/64/42 55/6/42
f 56/64/43 58/7/43 57/8/43
f 54/67/34 52/69/34 50/65/34
f 50/65/34 60/78/34 58/66/34
f 58/66/34 56/11/34 54/67/34
f 58/7/29 60/13/29 59/12/29
f 60/13/44 50/70/44 49/14/44
f 59/17/33 49/71/33 51/68/33
f 51/68/33 53/72/33 55/15/33
f 55/15/33 57/16/33 59/17/33
