# Blender 5.1.2
# www.blender.org
mtllib RockStone.mtl
o RockStone
v -0.051065 0.136843 0.047974
v -0.059397 0.653433 -1.530768
v 0.951791 0.690325 -0.216423
v 0.366977 0.551114 1.202332
v -1.641844 0.791515 0.786392
v -1.289054 0.566604 -1.173262
v 1.070027 1.664980 -1.227263
v 0.867391 1.628246 1.161787
v -0.363741 1.921059 1.714949
v -1.886673 1.858829 0.009726
v -1.136173 1.802283 -1.658367
v 0.086205 2.575092 0.162500
v 0.362966 0.236046 0.045052
v -0.092655 0.349034 -1.226877
v 0.533278 0.544042 -1.057573
v -0.820328 0.649158 -1.300025
v -1.029616 0.342432 -0.389094
v 0.213652 0.200755 0.612445
v 0.867123 0.466512 0.774680
v -0.845918 0.360974 0.769663
v -0.585742 0.484758 1.745210
v -1.810030 0.678533 0.142923
v -0.232007 1.182838 -1.609923
v -1.451730 1.332820 -1.516975
v 1.222986 1.227207 -0.441899
v 0.663910 1.222432 -1.402333
v 0.584628 1.128107 1.292403
v 1.257872 1.166746 0.583613
v -1.084889 1.014501 1.772024
v 0.065771 1.024959 1.547470
v -1.691713 1.103102 -0.485982
v -1.925018 1.086251 0.455481
v -0.073016 1.872561 -1.609961
v 0.943739 1.870720 -0.099596
v 0.378557 1.664821 1.711086
v -1.378210 1.879407 0.600515
v -1.426092 1.875899 -0.988627
v 0.600048 2.168421 -0.546236
v -0.529268 2.249822 -1.042433
v 0.463037 2.083725 0.289603
v -0.382912 2.388592 1.040456
v -0.945526 2.340170 -0.378779
v 1.457842 0.059477 0.768866
v 2.087786 0.283430 1.052453
v 1.356754 0.351842 1.411370
v 0.811162 0.377969 0.821837
v 1.288630 0.345495 0.257383
v 2.058967 0.218153 0.382685
v 1.710200 0.855250 1.238699
v 0.851547 0.725300 1.080499
v 0.906912 0.788223 0.447958
v 1.589247 0.764900 0.170655
v 2.090043 0.857707 0.670018
v 1.481714 1.102247 0.688997
v 1.396134 0.045348 1.155081
v 1.739153 0.087175 0.965463
v 1.762086 0.231413 1.245860
v 2.082608 0.300433 0.708378
v 1.676093 0.000000 0.555613
v 1.100813 0.029372 0.647412
v 0.946564 0.226773 1.002353
v 1.223025 0.100952 0.388199
v 0.967294 0.239129 0.324076
v 1.689052 0.204845 0.097359
v 2.081958 0.485196 0.949002
v 2.268662 0.568896 0.453422
v 1.498202 0.458318 1.406626
v 1.794567 0.579104 1.409435
v 0.816589 0.491906 1.014257
v 1.003144 0.573316 1.252155
v 0.888412 0.475571 0.273313
v 0.842049 0.466006 0.430306
v 1.987776 0.622003 0.084997
v 1.396759 0.488516 -0.031677
v 1.866120 0.748080 1.193516
v 1.368296 0.869159 1.318806
v 0.762991 0.880224 0.738837
v 1.197505 0.740881 0.089668
v 2.063344 0.840166 0.489852
v 1.529837 0.946855 1.030936
v 1.834328 1.023853 0.704775
v 1.089324 1.067273 1.035322
v 1.171562 0.973930 0.645711
v 1.543515 0.931976 0.304447
vn 0.2286 -0.9591 -0.1671
vn -0.2095 -0.6793 -0.7033
vn 0.2330 -0.9725 0.0008
vn -0.1229 -0.9780 0.1684
vn -0.2274 -0.9724 0.0516
vn -0.2812 -0.2309 -0.9315
vn 0.7934 -0.5280 -0.3029
vn 0.5791 -0.3345 0.7435
vn -0.6221 -0.6109 0.4897
vn -0.9078 -0.2480 -0.3382
vn 0.2281 -0.0708 -0.9711
vn 0.8812 -0.4693 -0.0576
vn 0.4683 -0.3060 0.8289
vn -0.8284 -0.2156 0.5169
vn -0.9051 -0.3185 -0.2816
vn 0.2978 0.8543 -0.4260
vn 0.5230 0.8306 0.1913
vn 0.2767 0.7934 0.5421
vn -0.3484 0.8980 0.2686
vn -0.3846 0.8846 -0.2637
vn -0.1143 0.9723 -0.2041
vn -0.3780 0.8557 -0.3536
vn -0.5154 0.8273 -0.2236
vn -0.2555 0.9644 0.0684
vn -0.5080 0.8439 0.1726
vn -0.5585 0.6742 0.4832
vn 0.6374 0.6104 0.4702
vn 0.5287 0.8052 0.2687
vn 0.3827 0.8798 0.2820
vn 0.7554 0.6278 0.1874
vn 0.5105 0.8431 0.1691
vn 0.6927 0.7192 -0.0536
vn 0.2229 0.9065 -0.3586
vn 0.2385 0.8861 -0.3974
vn -0.0284 0.8218 -0.5691
vn -0.8123 0.4260 -0.3984
vn -0.9605 0.2160 -0.1754
vn -0.9076 0.0401 -0.4180
vn -0.7079 0.3790 0.5960
vn -0.7518 0.4263 0.5030
vn -0.6330 0.5386 0.5561
vn -0.0692 -0.2152 0.9741
vn 0.4659 -0.4261 0.7755
vn 0.7183 -0.2351 0.6549
vn 0.8399 0.5214 0.1511
vn 0.9159 0.4014 -0.0075
vn 0.9232 0.3828 0.0336
vn 0.3283 0.0713 -0.9419
vn 0.2276 -0.0525 -0.9723
vn 0.0462 -0.0107 -0.9989
vn -0.9662 -0.0911 -0.2411
vn -0.9665 -0.0878 -0.2411
vn -0.8334 -0.4646 0.2994
vn 0.1915 -0.0908 0.9773
vn 0.1888 0.1286 0.9735
vn 0.4891 -0.2886 0.8231
vn 0.7120 -0.2292 0.6638
vn 0.7137 -0.2165 0.6661
vn 0.8682 -0.4947 -0.0376
vn 0.7434 -0.5121 -0.4302
vn 0.7972 -0.3884 -0.4621
vn 0.4974 -0.4673 -0.7310
vn -0.1014 -0.2238 -0.9693
vn -0.1183 -0.3979 -0.9098
vn -0.1636 -0.4325 -0.8867
vn -0.4522 -0.8859 -0.1036
vn -0.3534 -0.9328 0.0709
vn -0.4540 -0.8498 0.2679
vn -0.4591 -0.8577 0.2313
vn -0.1247 -0.9796 0.1576
vn 0.3028 -0.8519 0.4273
vn 0.2386 -0.8609 0.4493
vn 0.3681 -0.9290 0.0391
vn 0.5669 -0.8126 -0.1351
vn 0.0862 -0.9500 -0.3001
vn -0.3227 -0.8721 -0.3678
vn -0.1347 -0.9781 -0.1584
vn 0.5652 -0.8130 -0.1398
vn 0.3410 -0.9177 -0.2037
vn 0.3811 -0.6737 -0.6331
vn 0.1109 -0.9937 -0.0186
vn 0.4994 -0.8649 -0.0503
vn 0.0914 -0.9956 -0.0218
vn 0.1489 -0.9690 -0.1974
vn -0.2300 -0.9725 0.0359
vn 0.9997 0.0217 -0.0140
vn 0.2738 -0.3234 0.9058
vn -0.8569 -0.4326 0.2804
vn -0.1182 -0.2460 -0.9620
vn 0.5627 -0.4240 -0.7097
vn 0.8412 0.2657 0.4709
vn -0.2126 0.3235 0.9221
vn -0.9903 0.1298 -0.0489
vn -0.2844 -0.8127 -0.5085
vn 0.7320 -0.3159 -0.6036
vn 0.5428 0.8334 -0.1037
vn -0.4741 0.4310 0.7678
vn -0.2924 0.8606 -0.4169
vn 0.1177 0.6402 -0.7592
vn 0.5226 0.8376 -0.1590
vn 0.2176 0.9049 -0.3657
vn 0.2997 0.8591 -0.4149
vn 0.3557 0.6416 -0.6796
vn -0.2944 0.8554 -0.4261
vn -0.2522 0.8882 -0.3840
vn -0.3254 0.8666 -0.3784
vn -0.3321 0.8990 -0.2855
vn -0.2746 0.9204 -0.2785
vn -0.7115 0.5521 0.4348
vn 0.2482 0.8946 0.3716
vn 0.2475 0.8915 0.3795
vn 0.1127 0.9416 0.3174
vn 0.1838 0.9044 0.3851
vn 0.2775 0.8443 0.4584
vn 0.5388 0.7482 0.3871
vn 0.7738 0.6090 -0.1740
vn 0.6866 0.5788 -0.4400
vn 0.1977 0.8471 -0.4934
vn 0.1426 0.5181 -0.8434
vn -0.5146 0.0060 -0.8574
vn -0.6921 0.3828 -0.6119
vn -0.8522 0.1981 -0.4843
vn -0.9862 -0.1615 -0.0358
vn -0.9585 0.0647 0.2778
vn -0.4736 0.4088 0.7802
vn -0.2705 0.1187 0.9554
vn 0.2300 0.2724 0.9343
vn 0.5591 0.5528 0.6179
vn 0.8434 0.2503 0.4754
vn 0.8521 0.3018 0.4277
vn 0.0311 0.5762 -0.8167
vn 0.2321 -0.1944 -0.9531
vn -0.4612 -0.7145 -0.5261
vn -0.9421 0.2042 -0.2658
vn -0.8894 -0.3578 -0.2845
vn -0.8941 -0.4167 -0.1642
vn -0.7749 -0.0625 0.6290
vn -0.6712 -0.3582 0.6489
vn -0.5764 -0.4138 0.7046
vn -0.1999 0.4704 0.8595
vn 0.1679 -0.4325 0.8859
vn 0.5139 -0.4040 0.7567
vn 0.8869 0.2644 0.3788
vn 0.8926 -0.3564 0.2761
vn 0.8499 -0.5223 0.0703
vn 0.3232 -0.8673 -0.3786
vn -0.0520 -0.9112 -0.4088
vn -0.4473 -0.3256 -0.8330
vn -0.0296 -0.4653 -0.8847
vn -0.3557 -0.8443 -0.4008
vn -0.7850 -0.6149 -0.0747
vn -0.7616 -0.6474 0.0291
vn -0.4400 -0.8523 0.2828
vn -0.4638 -0.6026 0.6494
vn 0.5442 -0.8219 0.1681
vn 0.5711 -0.8164 0.0858
vn -0.0548 -0.9749 0.2158
vn 0.1278 -0.6265 0.7689
vn 0.3304 -0.8500 0.4102
vn 0.3716 -0.8376 0.4005
vt 0.181819 0.000000
vt 0.227273 0.078731
vt 0.136365 0.078731
vt 0.272728 0.157461
vt 0.318182 0.078731
vt 0.363637 0.157461
vt 0.909091 0.000000
vt 0.954545 0.078731
vt 0.863636 0.078731
vt 0.727273 0.000000
vt 0.772727 0.078731
vt 0.681818 0.078731
vt 0.545455 0.000000
vt 0.590909 0.078731
vt 0.500000 0.078731
vt 0.318182 0.236191
vt 0.090910 0.157461
vt 0.181819 0.157461
vt 0.136365 0.236191
vt 0.818182 0.157461
vt 0.909091 0.157461
vt 0.863636 0.236191
vt 0.636364 0.157461
vt 0.727273 0.157461
vt 0.681818 0.236191
vt 0.454546 0.157461
vt 0.545455 0.157461
vt 0.500000 0.236191
vt 0.227273 0.236191
vt 0.045455 0.236191
vt 0.772727 0.236191
vt 0.590909 0.236191
vt 0.409092 0.236191
vt 0.181819 0.314921
vt 0.272728 0.314921
vt 0.227273 0.393651
vt 0.000000 0.314921
vt 0.090910 0.314921
vt 0.045455 0.393651
vt 0.727273 0.314921
vt 0.818182 0.314921
vt 0.772727 0.393651
vt 0.545455 0.314921
vt 0.636364 0.314921
vt 0.590909 0.393651
vt 0.363637 0.314921
vt 0.454546 0.314921
vt 0.409092 0.393651
vt 0.500000 0.393651
vt 0.454546 0.472382
vt 0.681818 0.393651
vt 0.636364 0.472382
vt 0.863636 0.393651
vt 0.818182 0.472382
vt 0.909091 0.314921
vt 0.136365 0.393651
vt 0.090910 0.472382
vt 0.318182 0.393651
vt 0.272728 0.472382
vt 0.954545 0.236191
vt 1.000000 0.157461
vt 0.409092 0.078731
vt 0.363637 0.000000
s 0
usemtl fam_rock
f 1/1/1 14/2/1 13/3/1
f 2/4/2 14/5/2 16/6/2
f 1/7/3 13/8/3 18/9/3
f 1/10/4 18/11/4 20/12/4
f 1/13/5 20/14/5 17/15/5
f 2/4/6 16/6/6 23/16/6
f 3/17/7 15/18/7 25/19/7
f 4/20/8 19/21/8 27/22/8
f 5/23/9 21/24/9 29/25/9
f 6/26/10 22/27/10 31/28/10
f 2/4/11 23/16/11 26/29/11
f 3/17/12 25/19/12 28/30/12
f 4/20/13 27/22/13 30/31/13
f 5/23/14 29/25/14 32/32/14
f 6/26/15 31/28/15 24/33/15
f 7/34/16 33/35/16 38/36/16
f 8/37/17 34/38/17 40/39/17
f 9/40/18 35/41/18 41/42/18
f 10/43/19 36/44/19 42/45/19
f 11/46/20 37/47/20 39/48/20
f 39/48/21 42/49/21 12/50/21
f 39/48/22 37/47/22 42/49/22
f 37/47/23 10/43/23 42/49/23
f 42/45/24 41/51/24 12/52/24
f 42/45/25 36/44/25 41/51/25
f 36/44/26 9/40/26 41/51/26
f 41/42/27 40/53/27 12/54/27
f 41/42/28 35/41/28 40/53/28
f 35/41/29 8/55/29 40/53/29
f 40/39/30 38/56/30 12/57/30
f 40/39/31 34/38/31 38/56/31
f 34/38/32 7/34/32 38/56/32
f 38/36/33 39/58/33 12/59/33
f 38/36/34 33/35/34 39/58/34
f 33/35/35 11/46/35 39/58/35
f 24/33/36 37/47/36 11/46/36
f 24/33/37 31/28/37 37/47/37
f 31/28/38 10/43/38 37/47/38
f 32/32/39 36/44/39 10/43/39
f 32/32/40 29/25/40 36/44/40
f 29/25/41 9/40/41 36/44/41
f 30/31/42 35/41/42 9/40/42
f 30/31/43 27/22/43 35/41/43
f 27/22/44 8/55/44 35/41/44
f 28/30/45 34/38/45 8/37/45
f 28/30/46 25/19/46 34/38/46
f 25/19/47 7/34/47 34/38/47
f 26/29/48 33/35/48 7/34/48
f 26/29/49 23/16/49 33/35/49
f 23/16/50 11/46/50 33/35/50
f 31/28/51 32/32/51 10/43/51
f 31/28/52 22/27/52 32/32/52
f 22/27/53 5/23/53 32/32/53
f 29/25/54 30/31/54 9/40/54
f 29/25/55 21/24/55 30/31/55
f 21/24/56 4/20/56 30/31/56
f 27/22/57 28/60/57 8/55/57
f 27/22/58 19/21/58 28/60/58
f 19/21/59 3/61/59 28/60/59
f 25/19/60 26/29/60 7/34/60
f 25/19/61 15/18/61 26/29/61
f 15/18/62 2/4/62 26/29/62
f 23/16/63 24/33/63 11/46/63
f 23/16/64 16/6/64 24/33/64
f 16/6/65 6/26/65 24/33/65
f 17/15/66 22/27/66 6/26/66
f 17/15/67 20/14/67 22/27/67
f 20/14/68 5/23/68 22/27/68
f 20/12/69 21/24/69 5/23/69
f 20/12/70 18/11/70 21/24/70
f 18/11/71 4/20/71 21/24/71
f 18/9/72 19/21/72 4/20/72
f 18/9/73 13/8/73 19/21/73
f 13/8/74 3/61/74 19/21/74
f 16/6/75 17/62/75 6/26/75
f 16/6/76 14/5/76 17/62/76
f 14/5/77 1/63/77 17/62/77
f 13/3/78 15/18/78 3/17/78
f 13/3/79 14/2/79 15/18/79
f 14/2/80 2/4/80 15/18/80
usemtl fam_rock_dark
f 43/1/81 56/2/81 55/3/81
f 44/4/82 56/5/82 58/6/82
f 43/7/83 55/8/83 60/9/83
f 43/10/84 60/11/84 62/12/84
f 43/13/85 62/14/85 59/15/85
f 44/4/86 58/6/86 65/16/86
f 45/17/87 57/18/87 67/19/87
f 46/20/88 61/21/88 69/22/88
f 47/23/89 63/24/89 71/25/89
f 48/26/90 64/27/90 73/28/90
f 44/4/91 65/16/91 68/29/91
f 45/17/92 67/19/92 70/30/92
f 46/20/93 69/22/93 72/31/93
f 47/23/94 71/25/94 74/32/94
f 48/26/95 73/28/95 66/33/95
f 49/34/96 75/35/96 80/36/96
f 50/37/97 76/38/97 82/39/97
f 51/40/98 77/41/98 83/42/98
f 52/43/99 78/44/99 84/45/99
f 53/46/100 79/47/100 81/48/100
f 81/48/101 84/49/101 54/50/101
f 81/48/102 79/47/102 84/49/102
f 79/47/103 52/43/103 84/49/103
f 84/45/104 83/51/104 54/52/104
f 84/45/105 78/44/105 83/51/105
f 78/44/106 51/40/106 83/51/106
f 83/42/107 82/53/107 54/54/107
f 83/42/108 77/41/108 82/53/108
f 77/41/109 50/55/109 82/53/109
f 82/39/110 80/56/110 54/57/110
f 82/39/111 76/38/111 80/56/111
f 76/38/112 49/34/112 80/56/112
f 80/36/113 81/58/113 54/59/113
f 80/36/114 75/35/114 81/58/114
f 75/35/115 53/46/115 81/58/115
f 66/33/116 79/47/116 53/46/116
f 66/33/117 73/28/117 79/47/117
f 73/28/118 52/43/118 79/47/118
f 74/32/119 78/44/119 52/43/119
f 74/32/120 71/25/120 78/44/120
f 71/25/121 51/40/121 78/44/121
f 72/31/122 77/41/122 51/40/122
f 72/31/123 69/22/123 77/41/123
f 69/22/124 50/55/124 77/41/124
f 70/30/125 76/38/125 50/37/125
f 70/30/126 67/19/126 76/38/126
f 67/19/127 49/34/127 76/38/127
f 68/29/128 75/35/128 49/34/128
f 68/29/129 65/16/129 75/35/129
f 65/16/130 53/46/130 75/35/130
f 73/28/131 74/32/131 52/43/131
f 73/28/132 64/27/132 74/32/132
f 64/27/133 47/23/133 74/32/133
f 71/25/134 72/31/134 51/40/134
f 71/25/135 63/24/135 72/31/135
f 63/24/136 46/20/136 72/31/136
f 69/22/137 70/60/137 50/55/137
f 69/22/138 61/21/138 70/60/138
f 61/21/139 45/61/139 70/60/139
f 67/19/140 68/29/140 49/34/140
f 67/19/141 57/18/141 68/29/141
f 57/18/142 44/4/142 68/29/142
f 65/16/143 66/33/143 53/46/143
f 65/16/144 58/6/144 66/33/144
f 58/6/145 48/26/145 66/33/145
f 59/15/146 64/27/146 48/26/146
f 59/15/147 62/14/147 64/27/147
f 62/14/148 47/23/148 64/27/148
f 62/12/149 63/24/149 47/23/149
f 62/12/150 60/11/150 63/24/150
f 60/11/151 46/20/151 63/24/151
f 60/9/152 61/21/152 46/20/152
f 60/9/153 55/8/153 61/21/153
f 55/8/154 45/61/154 61/21/154
f 58/6/155 59/62/155 48/26/155
f 58/6/156 56/5/156 59/62/156
f 56/5/157 43/63/157 59/62/157
f 55/3/158 57/18/158 45/17/158
f 55/3/159 56/2/159 57/18/159
f 56/2/160 44/4/160 57/18/160
