# Blender 5.1.2
# www.blender.org
mtllib Chest.mtl
o Chest
v -0.960156 0.036312 0.583876
v -0.971408 1.090436 0.575695
v -0.957629 0.035347 -0.740407
v -0.967660 1.092607 -0.742317
v 0.977939 0.041051 0.592055
v 0.965823 1.081365 0.584882
v 0.968033 0.038122 -0.746718
v 0.967629 1.089500 -0.739827
v -0.973600 1.157667 -0.750984
v 1.002538 1.156924 -0.748076
v -0.990082 0.702433 -0.553530
v 0.986635 0.668367 -0.530134
v -0.986523 0.512923 -0.099977
v 1.023671 0.515655 -0.109640
v -1.016536 0.676154 0.381117
v 0.972979 0.711934 0.386000
v -1.023671 1.172348 0.596814
v 1.016820 1.157020 0.585693
v -0.997368 1.624155 0.379733
v 0.985221 1.616129 0.389978
v -0.978303 1.792132 -0.110396
v 0.982506 1.808363 -0.072293
v -0.982443 1.637040 -0.528796
v 0.991289 1.630804 -0.572272
v -0.708606 0.000000 0.617363
v -0.708606 1.120000 0.617363
v -0.708606 0.000000 -0.782637
v -0.708606 1.120000 -0.782637
v -0.481106 0.000000 0.617363
v -0.481106 1.120000 0.617363
v -0.481106 0.000000 -0.782637
v -0.481106 1.120000 -0.782637
v -0.708606 1.155000 -0.800137
v -0.481106 1.155000 -0.800137
v -0.708606 0.647651 -0.589986
v -0.481106 0.647651 -0.589986
v -0.708606 0.437500 -0.082637
v -0.481106 0.437500 -0.082637
v -0.708606 0.647651 0.424712
v -0.481106 0.647651 0.424712
v -0.708606 1.155000 0.634863
v -0.481106 1.155000 0.634863
v -0.708605 1.662349 0.424712
v -0.481106 1.662349 0.424712
v -0.708605 1.872500 -0.082637
v -0.481106 1.872500 -0.082637
v -0.708605 1.662349 -0.589986
v -0.481106 1.662349 -0.589986
v 0.481394 0.000000 0.617363
v 0.481394 1.120000 0.617363
v 0.481394 0.000000 -0.782637
v 0.481394 1.120000 -0.782637
v 0.708894 0.000000 0.617363
v 0.708894 1.120000 0.617363
v 0.708894 0.000000 -0.782637
v 0.708894 1.120000 -0.782637
v 0.481394 1.155000 -0.800137
v 0.708894 1.155000 -0.800137
v 0.481394 0.647651 -0.589986
v 0.708894 0.647651 -0.589986
v 0.481394 0.437500 -0.082637
v 0.708894 0.437500 -0.082637
v 0.481394 0.647651 0.424712
v 0.708894 0.647651 0.424712
v 0.481394 1.155000 0.634863
v 0.708894 1.155000 0.634863
v 0.481394 1.662349 0.424712
v 0.708894 1.662349 0.424712
v 0.481394 1.872500 -0.082637
v 0.708894 1.872500 -0.082637
v 0.481394 1.662349 -0.589986
v 0.708894 1.662349 -0.589986
v -0.139856 0.875000 0.678613
v -0.139856 1.225000 0.678613
v -0.139856 0.875000 0.556113
v -0.139856 1.225000 0.556113
v 0.140144 0.875000 0.678613
v 0.140144 1.225000 0.678613
v 0.140144 0.875000 0.556113
v 0.140144 1.225000 0.556113
v 0.000144 0.798000 0.704866
v 0.081188 0.859912 0.763747
v -0.030811 0.859912 0.800138
v -0.100031 0.859912 0.704866
v -0.030811 0.859912 0.609595
v 0.081188 0.859912 0.645986
v 0.031100 0.960088 0.800138
v -0.080899 0.960088 0.763747
v -0.080899 0.960088 0.645986
v 0.031100 0.960088 0.609595
v 0.100320 0.960088 0.704866
v 0.000144 1.022000 0.704866
vn -0.9999 -0.0107 -0.0019
vn -0.0033 0.0066 -1.0000
vn 0.9999 0.0116 -0.0074
vn -0.0042 0.0068 1.0000
vn 0.0014 -1.0000 0.0007
vn 0.0047 1.0000 0.0061
vn 0.0012 -0.3980 -0.9174
vn -0.0113 -0.9227 -0.3854
vn 0.0162 -0.9465 0.3222
vn 0.0049 -0.3986 0.9171
vn -0.0029 0.4332 0.9013
vn -0.0141 0.9461 0.3237
vn 0.9956 -0.0933 -0.0107
vn -0.0010 0.9377 -0.3476
vn -0.0187 0.4202 -0.9073
vn -0.9976 0.0682 -0.0154
vn -1.0000 -0.0000 -0.0000
vn -0.0000 -0.0000 -1.0000
vn 1.0000 -0.0000 -0.0000
vn -0.0000 -0.0000 1.0000
vn -0.0000 -1.0000 -0.0000
vn -0.0000 1.0000 -0.0000
vn -0.0000 -0.3827 -0.9239
vn -0.0000 -0.9239 -0.3827
vn -0.0000 -0.9239 0.3827
vn -0.0000 -0.3827 0.9239
vn -0.0000 0.3827 0.9239
vn -0.0000 0.9239 0.3827
vn -0.0000 0.9239 -0.3827
vn -0.0000 0.3827 -0.9239
vn 0.1876 -0.7947 0.5774
vn 0.6071 -0.7947 -0.0000
vn -0.4911 -0.7947 0.3568
vn -0.4911 -0.7947 -0.3568
vn 0.1876 -0.7947 -0.5774
vn 0.9822 -0.1876 -0.0000
vn 0.3035 -0.1876 0.9342
vn -0.7946 -0.1876 0.5774
vn -0.7946 -0.1876 -0.5774
vn 0.3035 -0.1876 -0.9342
vn 0.7946 0.1876 0.5774
vn -0.3035 0.1876 0.9342
vn -0.9822 0.1876 -0.0000
vn -0.3035 0.1876 -0.9342
vn 0.7946 0.1876 -0.5774
vn 0.4911 0.7947 0.3568
vn -0.1876 0.7947 0.5774
vn -0.6071 0.7947 -0.0000
vn -0.1876 0.7947 -0.5774
vn 0.4911 0.7947 -0.3568
vn -1.0000 -0.0095 -0.0029
vn 0.0013 -0.0018 -1.0000
vn 1.0000 0.0004 0.0014
vn -0.0047 0.0077 1.0000
vn 0.0024 -1.0000 0.0022
vn 0.0016 1.0000 0.0017
vn 0.0038 -0.4075 -0.9132
vn -0.0004 -0.9399 -0.3413
vn 0.0030 -0.9296 0.3685
vn 0.0019 -0.4095 0.9123
vn 0.0080 0.3926 0.9197
vn 0.0018 0.9233 0.3840
vn 0.9700 0.2432 0.0029
vn 0.9995 -0.0254 0.0161
vn 0.9998 0.0213 0.0066
vn 0.9995 0.0304 0.0068
vn 0.9979 0.0641 -0.0107
vn -0.0044 0.9423 -0.3347
vn 0.0015 0.3479 -0.9375
vn -0.9998 -0.0108 -0.0166
vn -0.9991 0.0200 -0.0373
vn -0.9996 -0.0021 -0.0283
vn -0.9953 -0.0923 -0.0308
vn -0.9985 0.0401 -0.0375
vt 0.625000 0.000000
vt 0.375000 0.250000
vt 0.375000 0.000000
vt 0.625000 0.500000
vt 0.375000 0.500000
vt 0.625000 0.750000
vt 0.375000 0.750000
vt 0.375000 1.000000
vt 0.125000 0.750000
vt 0.125000 0.500000
vt 0.875000 0.750000
vt 1.000000 1.000000
vt 0.875000 0.500000
vt 1.000000 0.500000
vt 0.875000 1.000000
vt 0.750000 0.500000
vt 0.625000 1.000000
vt 0.500000 0.500000
vt 0.250000 1.000000
vt 0.250000 0.500000
vt 0.250000 0.010000
vt 0.419706 0.080294
vt 0.250000 0.490000
vt 0.125000 1.000000
vt 0.000000 0.500000
vt 0.580294 0.080294
vt 0.510000 0.250000
vt 0.580294 0.419706
vt 0.625000 0.250000
vt 0.750000 1.000000
vt 0.500000 1.000000
vt 0.419706 0.419706
vt 0.181819 0.000000
vt 0.272728 0.157461
vt 0.090910 0.157461
vt 0.363637 0.000000
vt 0.454546 0.157461
vt 0.909091 0.000000
vt 1.000000 0.157461
vt 0.818182 0.157461
vt 0.727273 0.000000
vt 0.636364 0.157461
vt 0.545455 0.000000
vt 0.363637 0.314921
vt 0.181819 0.314921
vt 0.909091 0.314921
vt 0.727273 0.314921
vt 0.545455 0.314921
vt 0.000000 0.314921
vt 0.272728 0.472382
vt 0.090910 0.472382
vt 0.818182 0.472382
vt 0.636364 0.472382
vt 0.454546 0.472382
vt 0.490000 0.250000
vt 0.080294 0.419706
vt 0.080294 0.080294
vt 0.010000 0.250000
vt 0.000000 1.000000
vt 0.750000 0.490000
vt 0.919706 0.419706
vt 0.750000 0.010000
vt 0.919706 0.080294
vt 0.990000 0.250000
s 0
usemtl fam_wood
f 2/1/1 3/2/1 1/3/1
f 3/2/2 8/4/2 7/5/2
f 7/5/3 6/6/3 5/7/3
f 6/6/4 1/8/4 5/7/4
f 7/5/5 1/9/5 3/10/5
f 8/4/6 2/11/6 6/6/6
f 2/1/51 4/29/51 3/2/51
f 3/2/52 4/29/52 8/4/52
f 7/5/53 8/4/53 6/6/53
f 6/6/54 2/17/54 1/8/54
f 7/5/55 5/7/55 1/9/55
f 8/4/56 4/13/56 2/11/56
usemtl fam_wood_dark
f 10/12/7 11/13/7 9/14/7
f 12/15/8 13/16/8 11/13/8
f 13/16/9 16/17/9 15/4/9
f 16/17/10 17/18/10 15/4/10
f 17/18/11 20/8/11 19/5/11
f 19/5/12 22/19/12 21/20/12
f 18/21/13 16/22/13 10/23/13
f 22/19/14 23/10/14 21/20/14
f 24/24/15 9/25/15 23/10/15
f 19/26/16 21/27/16 23/28/16
f 10/12/57 12/15/57 11/13/57
f 12/15/58 14/30/58 13/16/58
f 13/16/59 14/30/59 16/17/59
f 16/17/60 18/31/60 17/18/60
f 17/18/61 18/31/61 20/8/61
f 19/5/62 20/8/62 22/19/62
f 14/55/63 12/32/63 16/22/63
f 12/32/64 10/23/64 16/22/64
f 10/23/65 24/56/65 20/57/65
f 24/56/66 22/58/66 20/57/66
f 20/57/67 18/21/67 10/23/67
f 22/19/68 24/24/68 23/10/68
f 24/24/69 10/59/69 9/25/69
f 23/28/70 9/60/70 19/26/70
f 9/60/71 11/61/71 17/62/71
f 17/62/72 11/61/72 15/63/72
f 11/61/73 13/64/73 15/63/73
f 17/62/74 19/26/74 9/60/74
usemtl fam_iron
f 26/1/17 27/2/17 25/3/17
f 28/29/18 31/5/18 27/2/18
f 32/4/19 29/7/19 31/5/19
f 30/6/20 25/8/20 29/7/20
f 31/5/21 25/9/21 27/10/21
f 28/13/22 30/6/22 32/4/22
f 34/12/23 35/13/23 33/14/23
f 36/15/24 37/16/24 35/13/24
f 38/30/25 39/4/25 37/16/25
f 40/17/26 41/18/26 39/4/26
f 42/31/27 43/5/27 41/18/27
f 44/8/28 45/20/28 43/5/28
f 42/21/19 40/22/19 36/32/19
f 46/19/29 47/10/29 45/20/29
f 48/24/30 33/25/30 47/10/30
f 43/26/17 45/27/17 47/28/17
f 50/1/17 51/2/17 49/3/17
f 52/29/18 55/5/18 51/2/18
f 56/4/19 53/7/19 55/5/19
f 54/6/20 49/8/20 53/7/20
f 55/5/21 49/9/21 51/10/21
f 52/13/22 54/6/22 56/4/22
f 58/12/23 59/13/23 57/14/23
f 60/15/24 61/16/24 59/13/24
f 62/30/25 63/4/25 61/16/25
f 64/17/26 65/18/26 63/4/26
f 66/31/27 67/5/27 65/18/27
f 68/8/28 69/20/28 67/5/28
f 66/21/19 64/22/19 60/32/19
f 70/19/29 71/10/29 69/20/29
f 72/24/30 57/25/30 71/10/30
f 67/26/17 69/27/17 71/28/17
f 26/1/17 28/29/17 27/2/17
f 28/29/18 32/4/18 31/5/18
f 32/4/19 30/6/19 29/7/19
f 30/6/20 26/17/20 25/8/20
f 31/5/21 29/7/21 25/9/21
f 28/13/22 26/11/22 30/6/22
f 34/12/23 36/15/23 35/13/23
f 36/15/24 38/30/24 37/16/24
f 38/30/25 40/17/25 39/4/25
f 40/17/26 42/31/26 41/18/26
f 42/31/27 44/8/27 43/5/27
f 44/8/28 46/19/28 45/20/28
f 38/55/19 36/32/19 40/22/19
f 36/32/19 34/23/19 42/21/19
f 34/23/19 48/56/19 44/57/19
f 48/56/19 46/58/19 44/57/19
f 44/57/19 42/21/19 34/23/19
f 46/19/29 48/24/29 47/10/29
f 48/24/30 34/59/30 33/25/30
f 47/28/17 33/60/17 41/62/17
f 33/60/17 35/61/17 39/63/17
f 35/61/17 37/64/17 39/63/17
f 39/63/17 41/62/17 33/60/17
f 41/62/17 43/26/17 47/28/17
f 50/1/17 52/29/17 51/2/17
f 52/29/18 56/4/18 55/5/18
f 56/4/19 54/6/19 53/7/19
f 54/6/20 50/17/20 49/8/20
f 55/5/21 53/7/21 49/9/21
f 52/13/22 50/11/22 54/6/22
f 58/12/23 60/15/23 59/13/23
f 60/15/24 62/30/24 61/16/24
f 62/30/25 64/17/25 63/4/25
f 64/17/26 66/31/26 65/18/26
f 66/31/27 68/8/27 67/5/27
f 68/8/28 70/19/28 69/20/28
f 62/55/19 60/32/19 64/22/19
f 60/32/19 58/23/19 66/21/19
f 58/23/19 72/56/19 68/57/19
f 72/56/19 70/58/19 68/57/19
f 68/57/19 66/21/19 58/23/19
f 70/19/29 72/24/29 71/10/29
f 72/24/30 58/59/30 57/25/30
f 71/28/17 57/60/17 65/62/17
f 57/60/17 59/61/17 63/63/17
f 59/61/17 61/64/17 63/63/17
f 63/63/17 65/62/17 57/60/17
f 65/62/17 67/26/17 71/28/17
usemtl fam_gold
f 74/1/17 75/2/17 73/3/17
f 76/29/18 79/5/18 75/2/18
f 80/4/19 77/7/19 79/5/19
f 78/6/20 73/8/20 77/7/20
f 79/5/21 73/9/21 75/10/21
f 76/13/22 78/6/22 80/4/22
f 81/33/31 82/34/31 83/35/31
f 82/34/32 81/36/32 86/37/32
f 81/38/33 83/39/33 84/40/33
f 81/41/34 84/40/34 85/42/34
f 81/43/35 85/42/35 86/37/35
f 82/34/36 86/37/36 91/44/36
f 83/35/37 82/34/37 87/45/37
f 84/40/38 83/39/38 88/46/38
f 85/42/39 84/40/39 89/47/39
f 86/37/40 85/42/40 90/48/40
f 82/34/41 91/44/41 87/45/41
f 83/35/42 87/45/42 88/49/42
f 84/40/43 88/46/43 89/47/43
f 85/42/44 89/47/44 90/48/44
f 86/37/45 90/48/45 91/44/45
f 87/45/46 91/44/46 92/50/46
f 88/49/47 87/45/47 92/51/47
f 89/47/48 88/46/48 92/52/48
f 90/48/49 89/47/49 92/53/49
f 91/44/50 90/48/50 92/54/50
f 74/1/17 76/29/17 75/2/17
f 76/29/18 80/4/18 79/5/18
f 80/4/19 78/6/19 77/7/19
f 78/6/20 74/17/20 73/8/20
f 79/5/21 77/7/21 73/9/21
f 76/13/22 74/11/22 78/6/22
