# Blender 5.1.2
# www.blender.org
mtllib Staff.mtl
o Staff
v -0.121905 0.000000 -0.122500
v -0.121905 5.250000 -0.122500
v -0.015817 0.000000 -0.061250
v -0.015817 5.250000 -0.061250
v -0.015817 0.000000 0.061250
v -0.015817 5.250000 0.061250
v -0.121905 0.000000 0.122500
v -0.121905 5.250000 0.122500
v -0.227993 0.000000 0.061250
v -0.227993 5.250000 0.061250
v -0.227993 0.000000 -0.061250
v -0.227993 5.250000 -0.061250
v -0.121905 0.000000 -0.192500
v -0.121905 0.350000 -0.105000
v 0.044805 0.000000 -0.096250
v -0.030973 0.350000 -0.052500
v 0.044805 0.000000 0.096250
v -0.030973 0.350000 0.052500
v -0.121905 0.000000 0.192500
v -0.121905 0.350000 0.105000
v -0.288615 0.000000 0.096250
v -0.212838 0.350000 0.052500
v -0.288615 0.000000 -0.096250
v -0.212838 0.350000 -0.052500
v -0.121905 4.445000 -0.192500
v -0.121905 4.655000 -0.192500
v 0.044805 4.445000 -0.096250
v 0.044805 4.655000 -0.096250
v 0.044805 4.445000 0.096250
v 0.044805 4.655000 0.096250
v -0.121905 4.445000 0.192500
v -0.121905 4.655000 0.192500
v -0.288615 4.445000 0.096250
v -0.288615 4.655000 0.096250
v -0.288615 4.445000 -0.096250
v -0.288615 4.655000 -0.096250
v -0.011572 5.035205 -0.119000
v 0.362762 6.164795 -0.024500
v 0.101387 4.997772 0.000000
v 0.386018 6.157088 0.000000
v -0.011572 5.035205 0.119000
v 0.362762 6.164795 0.024500
v -0.124531 5.072639 0.000000
v 0.339506 6.172502 0.000000
v -0.174289 5.002871 -0.209313
v -0.360763 6.158371 -0.443997
v -0.061996 5.053971 -0.094854
v -0.337644 6.168892 -0.420431
v -0.184663 5.067154 0.019606
v -0.362899 6.171606 -0.396866
v -0.296956 5.016053 -0.094854
v -0.386018 6.161085 -0.420431
v -0.184663 5.067154 -0.019606
v -0.362899 6.171606 0.396866
v -0.061996 5.053971 0.094854
v -0.337644 6.168892 0.420431
v -0.174289 5.002871 0.209313
v -0.360763 6.158371 0.443997
v -0.296956 5.016053 0.094854
v -0.386018 6.161085 0.420431
v -0.132247 5.731942 -0.000089
v 0.073394 6.022647 0.143311
v -0.174364 6.054062 0.218499
v -0.337967 6.028438 -0.001940
v -0.188084 6.056242 -0.208725
v 0.056567 6.045345 -0.151990
v -0.071273 6.439628 0.224111
v -0.291568 6.450067 0.145479
v -0.309607 6.473547 -0.144000
v -0.041688 6.460987 -0.201995
v 0.100996 6.439050 -0.013597
v -0.105509 6.727011 -0.019602
vn 0.5000 -0.0000 -0.8660
vn 1.0000 -0.0000 -0.0000
vn 0.5000 -0.0000 0.8660
vn -0.5000 -0.0000 0.8660
vn -0.0000 1.0000 -0.0000
vn -1.0000 -0.0000 -0.0000
vn -0.5000 -0.0000 -0.8660
vn -0.0000 -1.0000 -0.0000
vn 0.4887 0.2116 -0.8464
vn 0.9774 0.2116 -0.0000
vn 0.4887 0.2116 0.8464
vn -0.4887 0.2116 0.8464
vn -0.9774 0.2116 -0.0000
vn -0.4887 0.2116 -0.8464
vn 0.6878 -0.1689 -0.7060
vn 0.6878 -0.1689 0.7060
vn 0.3145 0.9492 -0.0000
vn -0.6525 0.2753 0.7060
vn -0.6525 0.2753 -0.7060
vn -0.3146 -0.9492 -0.0000
vn 0.7192 -0.0250 -0.6944
vn 0.6576 0.3564 0.6637
vn -0.1532 0.9496 -0.2736
vn -0.7363 0.1314 0.6637
vn -0.6748 -0.2499 -0.6944
vn 0.1532 -0.9496 0.2736
vn 0.6576 0.3564 -0.6637
vn 0.7192 -0.0250 0.6944
vn -0.1532 0.9496 0.2736
vn -0.6748 -0.2499 0.6944
vn -0.7363 0.1314 -0.6637
vn 0.1532 -0.9496 -0.2736
vn 0.1823 -0.5357 0.8245
vn 0.8334 -0.5454 -0.0894
vn -0.6819 -0.4697 0.5607
vn -0.6806 -0.4757 -0.5573
vn 0.1724 -0.5118 -0.8416
vn 0.9939 -0.0898 -0.0635
vn 0.2790 -0.0885 0.9562
vn -0.7900 -0.1231 0.6006
vn -0.7929 -0.1389 -0.5934
vn 0.2227 -0.0644 -0.9728
vn 0.7988 0.1650 0.5785
vn -0.3321 0.0751 0.9403
vn -0.9940 0.0853 0.0689
vn -0.2066 0.0909 -0.9742
vn 0.7982 0.1176 -0.5908
vn 0.6969 0.5103 0.5038
vn -0.2403 0.6110 0.7543
vn -0.7981 0.5946 0.0980
vn -0.1551 0.5331 -0.8317
vn 0.7160 0.5034 -0.4837
vt 1.000000 1.000000
vt 0.833333 0.500000
vt 1.000000 0.500000
vt 0.833333 1.000000
vt 0.666667 0.500000
vt 0.666667 1.000000
vt 0.500000 0.500000
vt 0.500000 1.000000
vt 0.333333 0.500000
vt 0.250000 0.490000
vt 0.042154 0.130000
vt 0.457846 0.130000
vt 0.333333 1.000000
vt 0.166667 0.500000
vt 0.166667 1.000000
vt -0.000000 0.500000
vt 0.957846 0.370000
vt 0.750000 0.010000
vt 0.542154 0.370000
vt 0.042154 0.130000
vt 0.250000 0.010000
vt 0.457846 0.130000
vt 0.957846 0.370000
vt 0.750000 0.010000
vt 0.542154 0.370000
vt 0.250000 0.490000
vt 0.042154 0.130000
vt 0.750000 0.500000
vt 0.500000 1.000000
vt 0.500000 0.500000
vt 0.490000 0.250000
vt 0.010000 0.250000
vt 0.250000 1.000000
vt 0.250000 0.500000
vt 0.000000 0.500000
vt 0.990000 0.250000
vt 0.510000 0.250000
vt 0.750000 0.490000
vt 0.750000 1.000000
vt 0.750000 0.010000
vt 0.181819 0.000000
vt 0.272728 0.157461
vt 0.090910 0.157461
vt 0.363637 0.000000
vt 0.454546 0.157461
vt 0.909091 0.000000
vt 1.000000 0.157461
vt 0.818182 0.157461
vt 0.727273 0.000000
vt 0.636364 0.157461
vt 0.545455 0.000000
vt 0.363637 0.314921
vt 0.181819 0.314921
vt 0.909091 0.314921
vt 0.727273 0.314921
vt 0.545455 0.314921
vt 0.000000 0.314921
vt 0.272728 0.472382
vt 0.090910 0.472382
vt 0.818182 0.472382
vt 0.636364 0.472382
vt 0.454546 0.472382
vt 0.457846 0.370000
vt 0.042154 0.370000
vt 0.250000 0.010000
vt -0.000000 1.000000
vt 0.750000 0.490000
vt 0.957846 0.130000
vt 0.542154 0.130000
vt 0.457846 0.370000
vt 0.042154 0.370000
vt 0.957846 0.130000
vt 0.542154 0.130000
vt 0.042154 0.370000
vt 0.250000 0.010000
vt 0.000000 1.000000
s 0
usemtl fam_wood
f 2/1/1 3/2/1 1/3/1
f 4/4/2 5/5/2 3/2/2
f 6/6/3 7/7/3 5/5/3
f 8/8/4 9/9/4 7/7/4
f 2/10/5 10/11/5 6/12/5
f 10/13/6 11/14/6 9/9/6
f 12/15/7 1/16/7 11/14/7
f 3/17/8 7/18/8 11/19/8
f 2/1/1 4/4/1 3/2/1
f 4/4/2 6/6/2 5/5/2
f 6/6/3 8/8/3 7/7/3
f 8/8/4 10/13/4 9/9/4
f 6/12/5 4/63/5 2/10/5
f 2/10/5 12/64/5 10/11/5
f 10/11/5 8/65/5 6/12/5
f 10/13/6 12/15/6 11/14/6
f 12/15/7 2/66/7 1/16/7
f 11/19/8 1/67/8 3/17/8
f 3/17/8 5/68/8 7/18/8
f 7/18/8 9/69/8 11/19/8
usemtl fam_gold
f 14/1/9 15/2/9 13/3/9
f 16/4/10 17/5/10 15/2/10
f 18/6/11 19/7/11 17/5/11
f 20/8/12 21/9/12 19/7/12
f 22/20/5 20/21/5 18/22/5
f 22/13/13 23/14/13 21/9/13
f 24/15/14 13/16/14 23/14/14
f 15/23/8 19/24/8 23/25/8
f 26/1/1 27/2/1 25/3/1
f 28/4/2 29/5/2 27/2/2
f 30/6/3 31/7/3 29/5/3
f 32/8/4 33/9/4 31/7/4
f 26/26/5 34/27/5 30/22/5
f 34/13/6 35/14/6 33/9/6
f 36/15/7 25/16/7 35/14/7
f 27/23/8 31/24/8 35/25/8
f 38/1/15 39/28/15 37/3/15
f 39/28/16 42/29/16 41/30/16
f 40/31/17 44/32/17 42/21/17
f 41/30/18 44/33/18 43/34/18
f 44/33/19 37/35/19 43/34/19
f 39/36/20 43/37/20 37/38/20
f 45/3/21 48/39/21 47/28/21
f 48/39/22 49/30/22 47/28/22
f 48/31/23 52/32/23 50/21/23
f 49/30/24 52/33/24 51/34/24
f 52/33/25 45/35/25 51/34/25
f 45/38/26 49/40/26 51/37/26
f 53/3/27 56/39/27 55/28/27
f 56/39/28 57/30/28 55/28/28
f 56/31/29 60/32/29 58/21/29
f 57/30/30 60/33/30 59/34/30
f 60/33/31 53/35/31 59/34/31
f 53/38/32 57/40/32 59/37/32
f 14/1/9 16/4/9 15/2/9
f 16/4/10 18/6/10 17/5/10
f 18/6/11 20/8/11 19/7/11
f 20/8/12 22/13/12 21/9/12
f 18/22/5 16/70/5 22/20/5
f 16/70/5 14/26/5 22/20/5
f 14/26/5 24/71/5 22/20/5
f 22/13/13 24/15/13 23/14/13
f 24/15/14 14/66/14 13/16/14
f 23/25/8 13/38/8 15/23/8
f 15/23/8 17/72/8 19/24/8
f 19/24/8 21/73/8 23/25/8
f 26/1/1 28/4/1 27/2/1
f 28/4/2 30/6/2 29/5/2
f 30/6/3 32/8/3 31/7/3
f 32/8/4 34/13/4 33/9/4
f 30/22/5 28/70/5 26/26/5
f 26/26/5 36/74/5 34/27/5
f 34/27/5 32/75/5 30/22/5
f 34/13/6 36/15/6 35/14/6
f 36/15/7 26/66/7 25/16/7
f 35/25/8 25/38/8 27/23/8
f 27/23/8 29/72/8 31/24/8
f 31/24/8 33/73/8 35/25/8
f 38/1/15 40/39/15 39/28/15
f 39/28/16 40/39/16 42/29/16
f 40/31/17 38/26/17 44/32/17
f 41/30/18 42/29/18 44/33/18
f 44/33/19 38/76/19 37/35/19
f 39/36/20 41/40/20 43/37/20
f 45/3/21 46/1/21 48/39/21
f 48/39/22 50/29/22 49/30/22
f 48/31/23 46/26/23 52/32/23
f 49/30/24 50/29/24 52/33/24
f 52/33/25 46/76/25 45/35/25
f 45/38/26 47/36/26 49/40/26
f 53/3/27 54/1/27 56/39/27
f 56/39/28 58/29/28 57/30/28
f 56/31/29 54/26/29 60/32/29
f 57/30/30 58/29/30 60/33/30
f 60/33/31 54/76/31 53/35/31
f 53/38/32 55/36/32 57/40/32
usemtl fam_orb_emit
f 61/41/33 62/42/33 63/43/33
f 62/42/34 61/44/34 66/45/34
f 61/46/35 63/47/35 64/48/35
f 61/49/36 64/48/36 65/50/36
f 61/51/37 65/50/37 66/45/37
f 62/42/38 66/45/38 71/52/38
f 63/43/39 62/42/39 67/53/39
f 64/48/40 63/47/40 68/54/40
f 65/50/41 64/48/41 69/55/41
f 66/45/42 65/50/42 70/56/42
f 62/42/43 71/52/43 67/53/43
f 63/43/44 67/53/44 68/57/44
f 64/48/45 68/54/45 69/55/45
f 65/50/46 69/55/46 70/56/46
f 66/45/47 70/56/47 71/52/47
f 67/53/48 71/52/48 72/58/48
f 68/57/49 67/53/49 72/59/49
f 69/55/50 68/54/50 72/60/50
f 70/56/51 69/55/51 72/61/51
f 71/52/52 70/56/52 72/62/52
