# Blender 5.1.2
# www.blender.org
mtllib Stump.mtl
o Stump
v -0.168462 0.320390 -1.229370
v -0.154840 1.888480 -1.155316
v 0.689298 0.345449 -0.973119
v 0.453534 1.805573 -0.848751
v 0.952748 0.238635 -0.317895
v 0.789004 1.756023 -0.283321
v 0.733107 0.295829 0.514759
v 0.463744 1.908737 0.347247
v -0.121994 0.337967 0.772518
v -0.031089 1.816315 0.569885
v -0.866207 0.266132 0.525999
v -0.621992 1.778240 0.299834
v -1.186683 0.363724 -0.156935
v -1.012702 1.772865 -0.217618
v -0.891077 0.277000 -1.056386
v -0.666147 1.832339 -0.888469
v -0.095578 1.766973 -1.006704
v -0.095578 1.889473 -1.006704
v 0.448894 1.766973 -0.781177
v 0.448894 1.889473 -0.781177
v 0.674422 1.766973 -0.236704
v 0.674422 1.889473 -0.236704
v 0.448894 1.766973 0.307768
v 0.448894 1.889473 0.307768
v -0.095578 1.766973 0.533296
v -0.095578 1.889473 0.533296
v -0.640050 1.766973 0.307768
v -0.640050 1.889473 0.307768
v -0.865578 1.766973 -0.236704
v -0.865578 1.889473 -0.236704
v -0.640050 1.766973 -0.781177
v -0.640050 1.889473 -0.781177
v 0.290820 0.211267 -0.686798
v 1.187611 0.770552 -0.900083
v 0.526067 0.004911 -0.488805
v 1.239888 0.724696 -0.856085
v 0.589641 0.179419 -0.168444
v 1.254016 0.763475 -0.784893
v 0.393684 0.493627 -0.168444
v 1.210470 0.833299 -0.784893
v 0.209003 0.513310 -0.488805
v 1.169429 0.837673 -0.856085
v -0.411603 0.146425 -0.751189
v -1.168068 0.770176 -1.199767
v -0.323754 0.462280 -0.579016
v -1.148546 0.840366 -1.161506
v -0.562789 0.511064 -0.300433
v -1.201665 0.851207 -1.099599
v -0.798369 0.225359 -0.300433
v -1.254016 0.787717 -1.099599
v -0.704932 0.000000 -0.579016
v -1.233252 0.737637 -1.161506
v -0.210207 0.571284 0.126065
v -0.242839 0.834458 1.171149
v 0.110885 0.416328 0.226139
v -0.171486 0.800023 1.193388
v 0.035809 0.091874 0.388061
v -0.188169 0.727922 1.229370
v -0.331681 0.046306 0.388061
v -0.269834 0.717796 1.229370
v -0.483727 0.342598 0.226139
v -0.303622 0.783639 1.193388
vn 0.2806 0.1263 -0.9515
vn 0.9283 0.1083 -0.3556
vn 0.9639 0.0984 0.2475
vn 0.2919 0.1122 0.9499
vn -0.3252 0.1910 0.9261
vn -0.8740 0.2069 0.4397
vn -0.1153 0.9897 -0.0844
vn -0.9420 0.1025 -0.3195
vn -0.2384 0.1383 -0.9613
vn -0.0325 -0.9994 0.0095
vn 0.3827 -0.0000 -0.9239
vn 0.9239 -0.0000 -0.3827
vn 0.9239 -0.0000 0.3827
vn 0.3827 -0.0000 0.9239
vn -0.3827 -0.0000 0.9239
vn -0.9239 -0.0000 0.3827
vn -0.0000 1.0000 -0.0000
vn -0.9239 -0.0000 -0.3827
vn -0.3827 -0.0000 -0.9239
vn -0.0000 -1.0000 -0.0000
vn 0.1686 -0.5755 -0.8002
vn 0.7447 -0.6369 0.1992
vn 0.4895 0.3053 0.8168
vn 0.7718 0.4814 -0.4154
vn -0.2443 0.9490 0.1992
vn -0.4427 0.4046 -0.8002
vn -0.7718 -0.4814 0.4154
vn 0.6295 0.2296 -0.7423
vn 0.3380 0.9326 0.1267
vn -0.5770 0.4758 0.6638
vn -0.6103 0.5032 -0.6118
vn -0.8511 -0.5095 0.1267
vn -0.1054 -0.6617 -0.7423
vn 0.6103 -0.5032 0.6118
vn 0.4758 0.8563 -0.2008
vn 0.9501 -0.0680 0.3043
vn 0.0969 -0.7814 0.6165
vn -0.0566 0.4563 0.8880
vn -0.9048 -0.2980 0.3043
vn -0.6706 0.7142 -0.2008
vn 0.0566 -0.4563 -0.8880
vn 0.4538 0.0381 -0.8903
vn 0.8529 0.1795 -0.4903
vn 0.8904 0.1916 0.4129
vn 0.3804 0.1582 0.9112
vn -0.4190 0.1485 0.8958
vn -0.7926 0.1236 0.5971
vn 0.2840 0.9551 -0.0848
vn 0.0150 0.9723 0.2332
vn 0.0223 0.9988 0.0446
vn -0.0776 0.9958 0.0482
vn -0.1240 0.9834 0.1326
vn -0.8810 0.1749 -0.4396
vn -0.4661 0.0458 -0.8835
vn 0.0892 -0.9882 0.1246
vn 0.0865 -0.9772 -0.1941
vn -0.0310 -0.9977 0.0604
vn -0.0813 -0.9966 0.0106
vn 0.1640 -0.9628 -0.2146
vt 1.000000 0.500000
vt 0.875000 1.000000
vt 0.875000 0.500000
vt 0.750000 1.000000
vt 0.750000 0.500000
vt 0.625000 0.500000
vt 0.500000 1.000000
vt 0.500000 0.500000
vt 0.375000 1.000000
vt 0.375000 0.500000
vt 0.250000 0.500000
vt 0.080294 0.080294
vt 0.419706 0.080294
vt 0.419706 0.419706
vt 0.250000 1.000000
vt 0.125000 0.500000
vt 0.125000 1.000000
vt 0.000000 0.500000
vt 0.750000 0.490000
vt 0.750000 0.010000
vt 0.510000 0.250000
vt 1.000000 1.000000
vt 0.625000 1.000000
vt 0.010000 0.250000
vt 0.250000 0.010000
vt 0.490000 0.250000
vt 0.919706 0.080294
vt 0.580294 0.080294
vt 0.580294 0.419706
vt 0.800000 0.500000
vt 0.800000 1.000000
vt 0.600000 0.500000
vt 0.400000 1.000000
vt 0.400000 0.500000
vt 0.250000 0.490000
vt 0.021746 0.324164
vt 0.108932 0.055836
vt 0.200000 0.500000
vt 0.200000 1.000000
vt 0.000000 0.500000
vt 0.978254 0.324164
vt 0.891068 0.055836
vt 0.608932 0.055836
vt 0.391068 0.055836
vt 0.000000 1.000000
vt 0.600000 1.000000
vt 0.521746 0.324164
vt 0.080294 0.419706
vt 0.010000 0.250000
vt 0.250000 0.010000
vt 0.000000 1.000000
vt 0.919706 0.419706
vt 0.990000 0.250000
vt 0.919706 0.080294
vt 0.580294 0.080294
vt 0.080294 0.419706
vt 0.080294 0.080294
vt 0.419706 0.080294
vt 0.750000 0.010000
vt 0.478254 0.324164
s 0
usemtl fam_wood_dark
f 1/1/1 4/2/1 3/3/1
f 3/3/2 6/4/2 5/5/2
f 6/4/3 7/6/3 5/5/3
f 7/6/4 10/7/4 9/8/4
f 9/8/5 12/9/5 11/10/5
f 12/9/6 13/11/6 11/10/6
f 12/12/7 8/13/7 4/14/7
f 14/15/8 15/16/8 13/11/8
f 16/17/9 1/18/9 15/16/9
f 1/19/10 9/20/10 13/21/10
f 34/22/21 35/30/21 33/1/21
f 36/31/22 37/32/22 35/30/22
f 37/32/23 40/33/23 39/34/23
f 34/35/24 42/36/24 40/37/24
f 40/33/25 41/38/25 39/34/25
f 42/39/26 33/40/26 41/38/26
f 35/41/27 37/42/27 39/43/27
f 44/22/28 45/30/28 43/1/28
f 46/31/29 47/32/29 45/30/29
f 47/32/30 50/33/30 49/34/30
f 52/36/31 50/37/31 48/44/31
f 49/34/32 52/39/32 51/38/32
f 51/38/33 44/45/33 43/40/33
f 45/41/34 47/42/34 49/43/34
f 53/1/35 56/31/35 55/30/35
f 56/31/36 57/32/36 55/30/36
f 58/46/37 59/34/37 57/32/37
f 54/35/38 62/36/38 60/37/38
f 59/34/39 62/39/39 61/38/39
f 62/39/40 53/40/40 61/38/40
f 57/42/41 59/43/41 61/47/41
f 1/1/42 2/22/42 4/2/42
f 3/3/43 4/2/43 6/4/43
f 6/4/44 8/23/44 7/6/44
f 7/6/45 8/23/45 10/7/45
f 9/8/46 10/7/46 12/9/46
f 12/9/47 14/15/47 13/11/47
f 6/26/48 4/14/48 8/13/48
f 4/14/49 2/35/49 16/48/49
f 12/12/50 4/14/50 16/48/50
f 16/48/51 14/49/51 12/12/51
f 12/12/52 10/50/52 8/13/52
f 14/15/53 16/17/53 15/16/53
f 16/17/54 2/51/54 1/18/54
f 15/29/55 1/19/55 13/21/55
f 1/19/56 3/52/56 5/53/56
f 9/20/57 5/53/57 7/54/57
f 1/19/58 5/53/58 9/20/58
f 9/20/59 11/55/59 13/21/59
f 34/22/21 36/31/21 35/30/21
f 36/31/22 38/46/22 37/32/22
f 37/32/23 38/46/23 40/33/23
f 38/44/24 36/60/24 40/37/24
f 36/60/24 34/35/24 40/37/24
f 40/33/25 42/39/25 41/38/25
f 42/39/26 34/45/26 33/40/26
f 41/47/27 33/19/27 39/43/27
f 33/19/27 35/41/27 39/43/27
f 44/22/28 46/31/28 45/30/28
f 46/31/29 48/46/29 47/32/29
f 47/32/30 48/46/30 50/33/30
f 48/44/31 46/60/31 44/35/31
f 44/35/31 52/36/31 48/44/31
f 49/34/32 50/33/32 52/39/32
f 51/38/33 52/39/33 44/45/33
f 51/47/34 43/19/34 49/43/34
f 43/19/34 45/41/34 49/43/34
f 53/1/35 54/22/35 56/31/35
f 56/31/36 58/46/36 57/32/36
f 58/46/37 60/33/37 59/34/37
f 58/44/38 56/60/38 60/37/38
f 56/60/38 54/35/38 60/37/38
f 59/34/39 60/33/39 62/39/39
f 62/39/40 54/45/40 53/40/40
f 61/47/41 53/19/41 55/41/41
f 55/41/41 57/42/41 61/47/41
usemtl fam_wood
f 18/22/11 19/3/11 17/1/11
f 20/2/12 21/5/12 19/3/12
f 22/4/13 23/6/13 21/5/13
f 24/23/14 25/8/14 23/6/14
f 26/7/15 27/10/15 25/8/15
f 28/9/16 29/11/16 27/10/16
f 30/24/17 26/25/17 22/26/17
f 30/15/18 31/16/18 29/11/18
f 32/17/19 17/18/19 31/16/19
f 23/27/20 27/28/20 31/29/20
f 18/22/11 20/2/11 19/3/11
f 20/2/12 22/4/12 21/5/12
f 22/4/13 24/23/13 23/6/13
f 24/23/14 26/7/14 25/8/14
f 26/7/15 28/9/15 27/10/15
f 28/9/16 30/15/16 29/11/16
f 22/26/17 20/14/17 18/35/17
f 18/35/17 32/56/17 30/24/17
f 30/24/17 28/57/17 26/25/17
f 26/25/17 24/58/17 22/26/17
f 22/26/17 18/35/17 30/24/17
f 30/15/18 32/17/18 31/16/18
f 32/17/19 18/51/19 17/18/19
f 31/29/20 17/19/20 19/52/20
f 19/52/20 21/53/20 23/27/20
f 23/27/20 25/59/20 27/28/20
f 27/28/20 29/21/20 31/29/20
f 31/29/20 19/52/20 23/27/20
