# Blender 5.1.2
# www.blender.org
mtllib TreePine.mtl
o TreePine
v 0.008553 0.014915 -0.844020
v 0.083147 4.288289 -0.542630
v 0.634649 0.094097 -0.575502
v 0.364279 4.284291 -0.412954
v 0.823406 0.013377 0.068107
v 0.385657 4.215122 -0.049504
v 0.380952 0.000000 0.565119
v 0.247245 4.313035 0.332067
v -0.261134 0.093343 0.621805
v -0.124494 4.285463 0.319187
v -0.778157 0.088109 0.001771
v -0.317059 4.236162 0.044246
v -0.560014 0.017163 -0.606955
v -0.248870 4.233869 -0.422099
v 0.074009 3.482930 -3.270473
v -0.071666 7.473515 -0.264484
v 2.513603 3.534343 -2.318277
v -0.089863 7.413544 -0.062740
v 3.184497 3.614130 -0.006312
v 0.110940 7.442913 -0.013873
v 2.484641 3.668707 2.412137
v 0.144056 7.291088 -0.006309
v 0.185235 3.419131 3.270473
v -0.115939 7.447974 -0.163342
v -2.218425 3.574350 2.159005
v 0.141303 7.429884 -0.019709
v -3.184498 3.688267 -0.153201
v -0.017717 7.252709 -0.183319
v -2.421155 3.414597 -2.389135
v -0.117811 7.333961 -0.021567
v -1.172516 6.149547 -2.529868
v -0.037523 9.701702 -0.226421
v 0.997166 6.105875 -2.537235
v 0.047124 9.722471 -0.126227
v 2.423343 6.251094 -1.222653
v -0.062526 9.711246 -0.207956
v 2.472742 6.278521 1.022333
v 0.051665 9.633196 -0.172638
v 1.039341 6.231094 2.280927
v -0.033141 9.753837 0.155689
v -0.824503 6.410233 2.340229
v 0.060173 9.723661 0.078082
v -2.424362 6.336908 0.759486
v -0.186845 9.699581 -0.068707
v -2.255648 6.284282 -1.098509
v 0.070603 9.721096 -0.058042
v -1.313219 9.025883 -1.366996
v -0.034844 11.709354 -0.012288
v 0.028483 8.779011 -1.715499
v -0.095367 11.941898 -0.304516
v 1.287411 8.966128 -1.363629
v 0.138649 11.993702 -0.014289
v 1.971014 8.748693 -0.073114
v -0.118870 11.736872 -0.122870
v 1.243460 8.736422 1.010321
v 0.053301 12.020081 -0.028757
v 0.036522 8.810957 1.845200
v -0.127309 11.985016 0.029096
v -1.142275 8.973923 1.322544
v -0.004283 11.814198 -0.158438
v -1.746789 8.930660 -0.199956
v 0.032072 11.858620 -0.055829
v -0.978458 11.115328 -0.416259
v 0.079025 13.540533 -0.030238
v -0.300461 11.195532 -0.953764
v 0.179333 13.755398 -0.196334
v 0.263140 11.344608 -1.008718
v -0.099623 13.787725 -0.126834
v 0.962313 11.331827 -0.384378
v 0.249850 13.624821 -0.236320
v 0.887810 11.119484 0.120339
v -0.043505 13.647615 0.015594
v 0.311053 11.347698 0.838528
v -0.046142 13.792885 -0.146705
v -0.362649 11.294275 0.747547
v -0.189596 13.855787 0.045153
v -0.995900 11.092585 0.343718
v -0.079109 13.639494 -0.099158
vn 0.3873 0.0581 -0.9201
vn 0.9586 0.0923 -0.2695
vn 0.7422 0.0959 0.6633
vn 0.0960 0.0567 0.9938
vn -0.7660 0.0786 0.6381
vn -0.0620 0.9611 -0.2691
vn -0.9349 0.0841 -0.3448
vn -0.3837 0.0687 -0.9209
vn -0.0900 -0.9924 0.0834
vn 0.2755 0.6147 -0.7391
vn 0.7379 0.6324 -0.2359
vn 0.7544 0.6238 0.2042
vn 0.2095 0.6330 0.7453
vn -0.3015 0.6053 0.7367
vn -0.7054 0.6295 0.3258
vn -0.1924 0.5034 0.8424
vn -0.7190 0.6164 -0.3209
vn -0.2784 0.6112 -0.7409
vn 0.0170 -0.9996 0.0240
vn 0.0081 0.5423 -0.8402
vn 0.5286 0.5626 -0.6356
vn 0.8148 0.5792 -0.0250
vn 0.5197 0.5938 0.6142
vn 0.0780 0.5323 0.8430
vn -0.6020 0.5444 0.5841
vn -0.3122 -0.9500 -0.0060
vn -0.8393 0.5360 -0.0914
vn -0.6393 0.5517 -0.5357
vn 0.0164 -0.9994 0.0298
vn -0.1617 0.3968 -0.9036
vn 0.1895 0.4062 -0.8939
vn 0.7785 0.5391 -0.3215
vn 0.7130 0.5067 0.4846
vn 0.5286 0.4420 0.7247
vn -0.3057 0.4609 0.8331
vn -0.8841 0.0381 0.4658
vn -0.8157 0.4884 0.3100
vn -0.8141 0.5192 -0.2601
vn -0.0713 -0.9973 0.0162
vn -0.6028 0.3749 -0.7044
vn -0.1729 0.3091 -0.9352
vn 0.6478 0.2478 -0.7204
vn 0.8980 0.3423 0.2765
vn 0.7867 0.3119 0.5327
vn -0.1526 0.3501 0.9242
vn 0.4896 0.7103 0.5058
vn -0.5802 0.3377 0.7412
vn -0.9415 0.3369 -0.0115
vn -0.1119 -0.9923 0.0535
vn 0.4188 0.0622 -0.9060
vn 0.9967 0.0661 -0.0460
vn 0.9428 0.0471 0.3299
vn -0.0400 0.0732 0.9965
vn -0.8229 0.0675 0.5642
vn -0.0740 0.9789 0.1906
vn -0.0879 0.9761 0.1987
vn 0.0299 0.9996 -0.0006
vn 0.0054 0.9836 -0.1802
vn -0.9833 0.1108 -0.1443
vn -0.3508 0.0720 -0.9337
vn 0.0198 -0.9982 0.0571
vn 0.1460 -0.9881 -0.0490
vn -0.0825 -0.9915 -0.1002
vn -0.1415 -0.9896 0.0269
vn 0.9963 -0.0256 0.0823
vn 0.2101 0.1667 -0.9634
vn 0.0814 0.0673 0.9944
vn -0.0715 0.6439 0.7618
vn 0.3513 -0.6143 -0.7066
vn -0.8017 0.5776 0.1538
vn -0.9408 0.3385 0.0158
vn 0.2830 -0.7753 0.5646
vn -0.1309 0.9271 0.3512
vn -0.4174 -0.8874 -0.1955
vn -0.2360 -0.0031 0.9717
vn 0.5874 -0.5166 0.6230
vn -0.9867 0.0734 -0.1453
vn 0.0792 -0.9859 0.1477
vn 0.0086 -0.9995 0.0320
vn 0.1298 -0.9897 0.0599
vn -0.0784 -0.9968 -0.0163
vn -0.0259 -0.9962 -0.0830
vn 0.5767 0.5526 -0.6017
vn -0.4665 -0.5405 0.7001
vn 0.5755 0.5819 -0.5746
vn 0.9300 0.3504 0.1115
vn -0.6656 -0.2913 -0.6871
vn -0.4567 0.5816 0.6732
vn 0.1327 0.9423 -0.3074
vn -0.0822 0.9963 -0.0251
vn -0.1919 -0.9534 0.2330
vn 0.5880 0.7965 -0.1408
vn -0.0631 -0.9906 0.1211
vn 0.0164 0.2795 -0.9600
vn -0.7926 0.3962 0.4634
vn -0.0198 -0.9967 0.0788
vn -0.0040 -0.9935 0.1141
vn 0.0429 -0.9990 0.0113
vn -0.0073 -0.9999 -0.0086
vn -0.0930 -0.9928 0.0751
vn -0.8961 0.2377 0.3748
vn 0.6267 0.5030 -0.5951
vn 0.0152 -0.4022 0.9154
vn 0.5547 -0.0615 -0.8298
vn 0.2188 0.3656 0.9047
vn -0.8218 0.0326 -0.5689
vn 0.3322 0.8452 -0.4187
vn -0.7110 0.4710 0.5221
vn 0.3758 0.7944 -0.4771
vn -0.3337 0.1984 -0.9216
vn -0.2195 -0.1849 0.9579
vn 0.8537 -0.5147 -0.0796
vn 0.8007 -0.4680 -0.3740
vn -0.2186 -0.9626 -0.1598
vn 0.1714 -0.9809 -0.0917
vn -0.1291 -0.9868 -0.0979
vn -0.1075 -0.9920 -0.0668
vn -0.0905 -0.9938 0.0642
vn -0.9372 0.2482 -0.2450
vn 0.1964 -0.3070 0.9312
vn -0.1460 0.3166 -0.9372
vn 0.6506 0.1541 0.7436
vn -0.9624 -0.2100 -0.1724
vn 0.8125 0.1025 0.5739
vn -0.2425 -0.7377 -0.6301
vn -0.5657 -0.3225 -0.7589
vn -0.8027 -0.0123 -0.5962
vn 0.9221 -0.2807 -0.2662
vn 0.5875 0.7737 -0.2370
vn -0.8489 -0.0857 -0.5215
vn 0.3876 -0.0223 -0.9215
vn 0.3156 -0.9486 -0.0211
vn 0.1665 -0.9840 0.0632
vn 0.2157 -0.9278 -0.3044
vn 0.2836 -0.8981 -0.3360
vn 0.0310 -0.9451 0.3252
vt 1.000000 1.000000
vt 0.857143 0.500000
vt 1.000000 0.500000
vt 0.714286 1.000000
vt 0.714286 0.500000
vt 0.571429 0.500000
vt 0.571429 1.000000
vt 0.428571 0.500000
vt 0.285714 1.000000
vt 0.285714 0.500000
vt 0.145868 0.033767
vt 0.354132 0.033767
vt 0.483983 0.196595
vt 0.142857 1.000000
vt 0.142857 0.500000
vt 0.000000 0.500000
vt 0.645868 0.033767
vt 0.516017 0.196595
vt 0.562360 0.399638
vt 0.875000 1.000000
vt 0.875000 0.500000
vt 0.750000 0.500000
vt 0.625000 1.000000
vt 0.625000 0.500000
vt 0.500000 0.500000
vt 0.500000 1.000000
vt 0.375000 0.500000
vt 0.250000 1.000000
vt 0.250000 0.500000
vt 0.419706 0.419706
vt 0.080294 0.419706
vt 0.080294 0.080294
vt 0.125000 1.000000
vt 0.125000 0.500000
vt 0.000000 0.500000
vt 0.750000 0.490000
vt 0.990000 0.250000
vt 0.580294 0.080294
vt 0.250000 0.010000
vt 0.000000 1.000000
vt 0.580294 0.080294
vt 0.510000 0.250000
vt 0.580294 0.419706
vt 0.375000 1.000000
vt 0.919706 0.419706
vt 0.750000 0.010000
vt 0.419706 0.080294
vt 0.490000 0.250000
vt 0.857143 1.000000
vt 0.428571 1.000000
vt 0.437640 0.399638
vt 0.250000 0.490000
vt 0.062360 0.399638
vt 0.016017 0.196595
vt 0.000000 1.000000
vt 0.937640 0.399638
vt 0.854132 0.033767
vt 0.983983 0.196595
vt 0.750000 1.000000
vt 0.010000 0.250000
vt 0.919706 0.080294
vt 0.919706 0.080294
s 0
usemtl fam_wood_dark
f 2/1/1 3/2/1 1/3/1
f 3/2/2 6/4/2 5/5/2
f 6/4/3 7/6/3 5/5/3
f 8/7/4 9/8/4 7/6/4
f 9/8/5 12/9/5 11/10/5
f 10/11/6 8/12/6 6/13/6
f 11/10/7 14/14/7 13/15/7
f 14/14/8 1/16/8 13/15/8
f 9/17/9 11/18/9 13/19/9
f 2/1/50 4/49/50 3/2/50
f 3/2/51 4/49/51 6/4/51
f 6/4/52 8/7/52 7/6/52
f 8/7/53 10/50/53 9/8/53
f 9/8/54 10/50/54 12/9/54
f 6/13/55 4/51/55 2/52/55
f 2/52/56 14/53/56 6/13/56
f 14/53/57 12/54/57 6/13/57
f 12/54/58 10/11/58 6/13/58
f 11/10/59 12/9/59 14/14/59
f 14/14/60 2/55/60 1/16/60
f 13/19/61 1/36/61 9/17/61
f 1/36/62 3/56/62 7/57/62
f 3/56/63 5/58/63 7/57/63
f 7/57/64 9/17/64 1/36/64
usemtl fam_pine
f 15/3/10 18/20/10 17/21/10
f 18/20/11 19/22/11 17/21/11
f 19/22/12 22/23/12 21/24/12
f 22/23/13 23/25/13 21/24/13
f 24/26/14 25/27/14 23/25/14
f 25/27/15 28/28/15 27/29/15
f 18/30/16 30/31/16 26/32/16
f 27/29/17 30/33/17 29/34/17
f 30/33/18 15/35/18 29/34/18
f 15/36/19 19/37/19 25/38/19
f 47/3/30 50/20/30 49/21/30
f 50/20/31 51/22/31 49/21/31
f 51/22/32 54/23/32 53/24/32
f 54/23/33 55/25/33 53/24/33
f 55/25/34 58/44/34 57/27/34
f 58/44/35 59/29/35 57/27/35
f 50/30/36 62/31/36 56/39/36
f 60/28/37 61/34/37 59/29/37
f 61/34/38 48/40/38 47/35/38
f 61/43/39 49/45/39 55/46/39
f 15/3/65 16/1/65 18/20/65
f 18/20/66 20/59/66 19/22/66
f 19/22/67 20/59/67 22/23/67
f 22/23/68 24/26/68 23/25/68
f 24/26/69 26/44/69 25/27/69
f 25/27/70 26/44/70 28/28/70
f 18/30/71 16/52/71 30/31/71
f 30/31/72 28/60/72 26/32/72
f 26/32/73 24/39/73 18/30/73
f 24/39/74 22/47/74 18/30/74
f 22/47/75 20/48/75 18/30/75
f 27/29/76 28/28/76 30/33/76
f 30/33/77 16/40/77 15/35/77
f 29/43/78 15/36/78 27/42/78
f 15/36/79 17/45/79 19/37/79
f 19/37/80 21/61/80 23/46/80
f 15/36/81 25/38/81 27/42/81
f 23/46/82 25/38/82 19/37/82
f 47/3/101 48/1/101 50/20/101
f 50/20/102 52/59/102 51/22/102
f 51/22/103 52/59/103 54/23/103
f 54/23/104 56/26/104 55/25/104
f 55/25/105 56/26/105 58/44/105
f 58/44/106 60/28/106 59/29/106
f 52/48/107 50/30/107 56/39/107
f 50/30/108 48/52/108 62/31/108
f 62/31/109 60/60/109 58/32/109
f 58/32/110 56/39/110 62/31/110
f 56/39/111 54/47/111 52/48/111
f 60/28/112 62/33/112 61/34/112
f 61/34/113 62/33/113 48/40/113
f 61/43/114 47/36/114 49/45/114
f 49/45/115 51/37/115 55/46/115
f 51/37/116 53/62/116 55/46/116
f 55/46/117 57/41/117 59/42/117
f 61/43/118 55/46/118 59/42/118
usemtl fam_leaf
f 32/1/20 33/21/20 31/3/20
f 34/20/21 35/22/21 33/21/21
f 35/22/22 38/23/22 37/24/22
f 38/23/23 39/25/23 37/24/23
f 40/26/24 41/27/24 39/25/24
f 41/27/25 44/28/25 43/29/25
f 46/31/26 42/32/26 40/39/26
f 44/28/27 45/34/27 43/29/27
f 45/34/28 32/40/28 31/35/28
f 41/41/29 43/42/29 45/43/29
f 64/1/40 65/21/40 63/3/40
f 66/20/41 67/22/41 65/21/41
f 67/22/42 70/23/42 69/24/42
f 69/24/43 72/26/43 71/25/43
f 72/26/44 73/27/44 71/25/44
f 74/44/45 75/29/45 73/27/45
f 72/39/46 70/47/46 68/48/46
f 75/29/47 78/33/47 77/34/47
f 78/33/48 63/35/48 77/34/48
f 75/42/49 65/45/49 71/46/49
f 32/1/83 34/20/83 33/21/83
f 34/20/84 36/59/84 35/22/84
f 35/22/85 36/59/85 38/23/85
f 38/23/86 40/26/86 39/25/86
f 40/26/87 42/44/87 41/27/87
f 41/27/88 42/44/88 44/28/88
f 36/48/89 34/30/89 32/52/89
f 46/31/90 44/60/90 42/32/90
f 36/48/91 32/52/91 46/31/91
f 40/39/92 38/47/92 36/48/92
f 40/39/93 36/48/93 46/31/93
f 44/28/94 46/33/94 45/34/94
f 45/34/95 46/33/95 32/40/95
f 45/43/96 31/36/96 33/45/96
f 33/45/97 35/37/97 45/43/97
f 35/37/98 37/62/98 39/46/98
f 45/43/99 35/37/99 39/46/99
f 39/46/100 41/41/100 45/43/100
f 64/1/119 66/20/119 65/21/119
f 66/20/120 68/59/120 67/22/120
f 67/22/121 68/59/121 70/23/121
f 69/24/122 70/23/122 72/26/122
f 72/26/123 74/44/123 73/27/123
f 74/44/124 76/28/124 75/29/124
f 68/48/125 66/30/125 72/39/125
f 66/30/126 64/52/126 72/39/126
f 78/31/127 76/60/127 74/32/127
f 78/31/128 74/32/128 72/39/128
f 64/52/129 78/31/129 72/39/129
f 75/29/130 76/28/130 78/33/130
f 78/33/131 64/40/131 63/35/131
f 77/43/132 63/36/132 75/42/132
f 63/36/133 65/45/133 75/42/133
f 65/45/134 67/37/134 71/46/134
f 67/37/135 69/62/135 71/46/135
f 71/46/136 73/41/136 75/42/136
