# Blender 5.1.2
# www.blender.org
mtllib Forge.mtl
o Forge
v -1.755147 0.000000 1.216947
v -1.734699 2.057678 1.228920
v -1.780474 0.116779 -1.356333
v -1.768990 2.147236 -1.409541
v 1.166944 0.015817 1.249690
v 1.273906 2.138088 1.170021
v 1.297159 0.061529 -1.358275
v 1.135699 2.124426 -1.262881
v -1.571319 2.009140 0.883912
v -1.472595 3.247942 0.880599
v -1.539049 1.990585 -1.297382
v -1.464247 3.249767 -1.285359
v 0.955619 2.010632 0.841657
v 1.023339 3.240981 0.886342
v 1.015027 1.994448 -1.252697
v 0.925432 3.311648 -1.247903
v -0.869624 1.072241 1.325076
v -0.869624 1.982241 1.325076
v -0.869624 1.072241 0.905076
v -0.869624 1.982241 0.905076
v 0.320376 1.072241 1.325076
v 0.320376 1.982241 1.325076
v 0.320376 1.072241 0.905076
v 0.320376 1.982241 0.905076
v -0.729624 1.142241 1.342573
v -0.729624 1.772241 1.342573
v -0.729624 1.142241 0.992573
v -0.729624 1.772241 0.992573
v 0.180376 1.142241 1.342573
v 0.180376 1.772241 1.342573
v 0.180376 1.142241 0.992573
v 0.180376 1.772241 0.992573
v -1.179204 0.051729 1.824698
v -1.121608 0.763408 1.815201
v -1.177607 0.066847 0.974775
v -1.148028 0.767932 0.960133
v 0.591344 0.064389 1.831850
v 0.574225 0.763701 1.831559
v 0.624375 0.069938 0.963766
v 0.579493 0.746622 0.989137
v -0.267239 3.188026 -1.278811
v -0.298008 5.120776 -1.105872
v 0.300895 3.170672 -0.845060
v 0.103831 5.128692 -0.824254
v 0.057504 3.201315 -0.246129
v -0.034086 5.059713 -0.372591
v -0.604193 3.166037 -0.204900
v -0.476156 5.116133 -0.385700
v -0.762277 3.173783 -0.883815
v -0.680968 5.130143 -0.777280
v -0.133725 0.075082 -1.616438
v 0.073917 0.180433 -1.505132
v -0.173757 0.176337 -1.391447
v -0.388806 0.165742 -1.611253
v -0.220980 0.209251 -1.831851
v 0.063698 0.159191 -1.713541
v -0.083460 0.438297 -1.400399
v -0.296481 0.420794 -1.508742
v -0.307945 0.401548 -1.727930
v -0.086905 0.422086 -1.826579
v 0.094045 0.409251 -1.602875
v -0.153359 0.559107 -1.632499
v -1.515153 0.060004 -1.216613
v -1.305199 0.218757 -1.047638
v -1.585625 0.204010 -0.995610
v -1.720665 0.176831 -1.183263
v -1.575083 0.203693 -1.425828
v -1.340252 0.151957 -1.367391
v -1.431308 0.385081 -0.969511
v -1.694115 0.399741 -1.031235
v -1.718622 0.394805 -1.311518
v -1.476673 0.389130 -1.444083
v -1.310158 0.446975 -1.169465
v -1.515351 0.594863 -1.221649
v -1.570286 0.150215 0.982948
v -1.395744 0.246131 1.093304
v -1.644170 0.202211 1.164550
v -1.706894 0.224082 1.021506
v -1.606204 0.242790 0.854776
v -1.391318 0.241303 0.930761
v -1.480143 0.358249 1.180994
v -1.691746 0.386301 1.095071
v -1.713651 0.372324 0.905567
v -1.480355 0.391179 0.883313
v -1.401582 0.359310 0.982827
v -1.531687 0.477447 1.022539
v 1.551896 0.018243 -0.173543
v 1.774559 0.172596 -0.071910
v 1.467556 0.173506 0.055619
v 1.250313 0.178591 -0.214937
v 1.443118 0.188074 -0.442227
v 1.746696 0.204533 -0.387943
v 1.643613 0.403199 0.075093
v 1.312887 0.447285 -0.038769
v 1.350568 0.442681 -0.360154
v 1.625043 0.434804 -0.418111
v 1.780474 0.398553 -0.196318
v 1.550060 0.564290 -0.230847
vn -0.9999 0.0099 0.0103
vn 0.0002 0.0462 -0.9989
vn 0.9976 -0.0484 0.0490
vn -0.0112 -0.0057 0.9999
vn 0.0059 -0.9990 -0.0454
vn -0.0268 0.9996 -0.0041
vn -0.9981 0.0594 -0.0153
vn 0.0175 0.0085 -0.9998
vn 0.9980 -0.0560 0.0287
vn 0.0167 0.0013 0.9999
vn 0.0007 -1.0000 0.0085
vn 0.0027 0.9995 0.0330
vn -1.0000 -0.0000 -0.0000
vn -0.0000 -0.0000 -1.0000
vn 1.0000 -0.0000 -0.0000
vn -0.0000 -0.0000 1.0000
vn -0.0000 -1.0000 -0.0000
vn -0.0000 1.0000 -0.0000
vn -0.9967 0.0807 -0.0004
vn -0.0062 0.0371 -0.9993
vn 0.9972 0.0647 0.0384
vn -0.0041 0.0137 0.9999
vn 0.0072 -0.9998 -0.0178
vn -0.0000 0.9998 -0.0203
vn 0.6067 0.0695 -0.7919
vn 0.9254 0.0709 0.3724
vn 0.0583 0.0706 0.9958
vn 0.0039 0.9994 0.0337
vn -0.9702 0.0847 0.2269
vn -0.6236 0.0598 -0.7794
vn 0.0518 -0.9984 -0.0234
vn 0.2129 -0.8763 0.4322
vn 0.4205 -0.9045 0.0716
vn -0.3082 -0.8868 0.3443
vn -0.3132 -0.8578 -0.4075
vn 0.0829 -0.8305 -0.5508
vn 0.9939 -0.1037 -0.0382
vn 0.4160 -0.1126 0.9023
vn -0.7141 -0.0227 0.6997
vn -0.7927 -0.0294 -0.6089
vn 0.3468 -0.1957 -0.9173
vn 0.7506 0.2026 0.6289
vn -0.4575 0.1874 0.8692
vn -0.9427 0.3332 0.0201
vn -0.4128 0.2815 -0.8663
vn 0.7701 0.1777 -0.6127
vn 0.4696 0.8331 0.2922
vn -0.3256 0.7950 0.5119
vn -0.7059 0.7079 -0.0252
vn -0.3414 0.7088 -0.6173
vn 0.5132 0.7740 -0.3707
vn 0.1487 -0.8062 0.5727
vn 0.5383 -0.8348 0.1154
vn -0.4006 -0.8208 0.4071
vn -0.5023 -0.7732 -0.3871
vn -0.0441 -0.8294 -0.5570
vn 0.9942 -0.0329 -0.1021
vn 0.1893 -0.2962 0.9362
vn -0.7501 -0.3093 0.5846
vn -0.8043 -0.2958 -0.5155
vn 0.1953 -0.1982 -0.9605
vn 0.7648 0.3162 0.5613
vn -0.2256 0.0520 0.9728
vn -0.9945 0.0599 0.0859
vn -0.4710 0.1646 -0.8666
vn 0.7931 0.2815 -0.5402
vn 0.4232 0.7608 0.4919
vn -0.1129 0.7450 0.6575
vn -0.7117 0.7007 0.0499
vn -0.3506 0.6563 -0.6680
vn 0.5879 0.6422 -0.4918
vn 0.2621 -0.8943 0.3627
vn 0.4622 -0.8859 0.0389
vn -0.4600 -0.8854 0.0663
vn -0.5207 -0.7547 -0.3992
vn 0.2106 -0.7635 -0.6105
vn 0.9968 0.0757 0.0249
vn 0.3181 -0.4238 0.8480
vn -0.9171 -0.0905 0.3883
vn -0.7521 -0.4270 -0.5021
vn 0.3311 -0.1004 -0.9383
vn 0.8596 0.3790 0.3428
vn -0.3344 0.2559 0.9070
vn -0.9929 0.0421 0.1117
vn -0.1135 0.2796 -0.9534
vn 0.7921 0.3028 -0.5300
vn 0.6909 0.6676 0.2775
vn -0.1525 0.7653 0.6253
vn -0.4971 0.8677 -0.0065
vn -0.1194 0.8236 -0.5544
vn 0.6107 0.7540 -0.2420
vn 0.2488 -0.7569 0.6044
vn 0.6049 -0.7852 -0.1327
vn -0.4755 -0.7996 0.3668
vn -0.3958 -0.8401 -0.3708
vn 0.1458 -0.8085 -0.5701
vn 0.9923 -0.0785 -0.0954
vn 0.3587 -0.3484 0.8660
vn -0.7625 -0.2211 0.6081
vn -0.7595 -0.0675 -0.6470
vn 0.1777 -0.0349 -0.9835
vn 0.8730 0.2175 0.4365
vn -0.3034 0.1528 0.9405
vn -0.9481 0.2964 -0.1154
vn -0.1943 0.2363 -0.9521
vn 0.7923 0.3534 -0.4974
vn 0.5384 0.8023 0.2578
vn -0.0471 0.8778 0.4766
vn -0.4860 0.8712 -0.0695
vn -0.1023 0.7986 -0.5931
vn 0.5873 0.7565 -0.2879
vn -0.9999 0.0060 0.0132
vn 0.0502 -0.0264 -0.9984
vn 0.9951 0.0805 -0.0570
vn 0.0186 0.0366 0.9992
vn -0.0180 -0.9997 -0.0184
vn 0.0061 0.9994 0.0338
vn -0.9968 0.0794 -0.0038
vn 0.0156 0.0047 -0.9999
vn 0.9967 0.0680 -0.0435
vn -0.0024 -0.0362 0.9993
vn 0.0014 -1.0000 0.0078
vn -0.0259 0.9997 0.0007
vn -0.9986 0.0428 0.0311
vn 0.0165 -0.0216 -0.9996
vn 0.9997 0.0245 0.0058
vn -0.0096 0.0002 1.0000
vn 0.0017 -1.0000 -0.0063
vn 0.0123 0.9999 0.0049
vn 0.5709 0.0822 -0.8169
vn 0.9483 0.0922 0.3037
vn -0.0176 0.0934 0.9955
vn 0.1190 0.9754 0.1853
vn 0.0002 0.9996 -0.0283
vn -0.8859 0.0116 0.4638
vn -0.6487 0.0682 -0.7580
vn -0.0015 -0.9993 -0.0380
vn -0.0047 -0.9988 0.0492
vt 0.625000 0.000000
vt 0.375000 0.250000
vt 0.375000 0.000000
vt 0.625000 0.500000
vt 0.375000 0.500000
vt 0.625000 0.750000
vt 0.375000 0.750000
vt 0.625000 1.000000
vt 0.375000 1.000000
vt 0.125000 0.500000
vt 0.125000 0.750000
vt 0.875000 0.750000
vt 0.625000 0.250000
vt 0.875000 0.500000
vt 1.000000 0.500000
vt 0.800000 1.000000
vt 0.800000 0.500000
vt 0.600000 1.000000
vt 0.600000 0.500000
vt 0.400000 0.500000
vt 0.108932 0.055836
vt 0.478254 0.324164
vt 0.021746 0.324164
vt 0.400000 1.000000
vt 0.200000 0.500000
vt 0.000000 1.000000
vt 0.000000 0.500000
vt 0.891068 0.055836
vt 0.608932 0.055836
vt 0.521746 0.324164
vt 0.181819 0.000000
vt 0.272728 0.157461
vt 0.090910 0.157461
vt 0.363637 0.000000
vt 0.454546 0.157461
vt 0.909091 0.000000
vt 1.000000 0.157461
vt 0.818182 0.157461
vt 0.727273 0.000000
vt 0.636364 0.157461
vt 0.545455 0.000000
vt 0.363637 0.314921
vt 0.181819 0.314921
vt 0.909091 0.314921
vt 0.727273 0.314921
vt 0.545455 0.314921
vt 0.000000 0.314921
vt 0.272728 0.472382
vt 0.090910 0.472382
vt 0.818182 0.472382
vt 0.636364 0.472382
vt 0.454546 0.472382
vt 1.000000 1.000000
vt 0.391068 0.055836
vt 0.250000 0.490000
vt 0.200000 1.000000
vt 0.750000 0.490000
vt 0.978254 0.324164
s 0
usemtl fam_rock
f 2/1/1 3/2/1 1/3/1
f 3/2/2 8/4/2 7/5/2
f 7/5/3 6/6/3 5/7/3
f 5/7/4 2/8/4 1/9/4
f 3/10/5 5/7/5 1/11/5
f 8/4/6 2/12/6 6/6/6
f 34/1/19 35/2/19 33/3/19
f 35/2/20 40/4/20 39/5/20
f 40/4/21 37/7/21 39/5/21
f 37/7/22 34/8/22 33/9/22
f 35/10/23 37/7/23 33/11/23
f 40/4/24 34/12/24 38/6/24
f 41/15/25 44/16/25 43/17/25
f 43/17/26 46/18/26 45/19/26
f 46/18/27 47/20/27 45/19/27
f 48/21/28 44/22/28 50/23/28
f 48/24/29 49/25/29 47/20/29
f 49/25/30 42/26/30 41/27/30
f 45/28/31 47/29/31 49/30/31
f 2/1/112 4/13/112 3/2/112
f 3/2/113 4/13/113 8/4/113
f 7/5/114 8/4/114 6/6/114
f 5/7/115 6/6/115 2/8/115
f 3/10/116 7/5/116 5/7/116
f 8/4/117 4/14/117 2/12/117
f 34/1/124 36/13/124 35/2/124
f 35/2/125 36/13/125 40/4/125
f 40/4/126 38/6/126 37/7/126
f 37/7/127 38/6/127 34/8/127
f 35/10/128 39/5/128 37/7/128
f 40/4/129 36/14/129 34/12/129
f 41/15/130 42/53/130 44/16/130
f 43/17/131 44/16/131 46/18/131
f 46/18/132 48/24/132 47/20/132
f 46/54/133 44/22/133 48/21/133
f 44/22/134 42/55/134 50/23/134
f 48/24/135 50/56/135 49/25/135
f 49/25/136 50/56/136 42/26/136
f 49/30/137 41/57/137 43/58/137
f 43/58/138 45/28/138 49/30/138
usemtl fam_rock_dark
f 9/3/7 12/13/7 11/2/7
f 12/13/8 15/5/8 11/2/8
f 15/5/9 14/6/9 13/7/9
f 13/7/10 10/8/10 9/9/10
f 11/10/11 13/7/11 9/11/11
f 16/4/12 10/12/12 14/6/12
f 51/31/32 52/32/32 53/33/32
f 52/32/33 51/34/33 56/35/33
f 51/36/34 53/37/34 54/38/34
f 51/39/35 54/38/35 55/40/35
f 51/41/36 55/40/36 56/35/36
f 52/32/37 56/35/37 61/42/37
f 53/33/38 52/32/38 57/43/38
f 54/38/39 53/37/39 58/44/39
f 55/40/40 54/38/40 59/45/40
f 56/35/41 55/40/41 60/46/41
f 52/32/42 61/42/42 57/43/42
f 53/33/43 57/43/43 58/47/43
f 54/38/44 58/44/44 59/45/44
f 55/40/45 59/45/45 60/46/45
f 56/35/46 60/46/46 61/42/46
f 57/43/47 61/42/47 62/48/47
f 58/47/48 57/43/48 62/49/48
f 59/45/49 58/44/49 62/50/49
f 60/46/50 59/45/50 62/51/50
f 61/42/51 60/46/51 62/52/51
f 63/31/52 64/32/52 65/33/52
f 64/32/53 63/34/53 68/35/53
f 63/36/54 65/37/54 66/38/54
f 63/39/55 66/38/55 67/40/55
f 63/41/56 67/40/56 68/35/56
f 64/32/57 68/35/57 73/42/57
f 65/33/58 64/32/58 69/43/58
f 66/38/59 65/37/59 70/44/59
f 67/40/60 66/38/60 71/45/60
f 68/35/61 67/40/61 72/46/61
f 64/32/62 73/42/62 69/43/62
f 65/33/63 69/43/63 70/47/63
f 66/38/64 70/44/64 71/45/64
f 67/40/65 71/45/65 72/46/65
f 68/35/66 72/46/66 73/42/66
f 69/43/67 73/42/67 74/48/67
f 70/47/68 69/43/68 74/49/68
f 71/45/69 70/44/69 74/50/69
f 72/46/70 71/45/70 74/51/70
f 73/42/71 72/46/71 74/52/71
f 75/31/72 76/32/72 77/33/72
f 76/32/73 75/34/73 80/35/73
f 75/36/74 77/37/74 78/38/74
f 75/39/75 78/38/75 79/40/75
f 75/41/76 79/40/76 80/35/76
f 76/32/77 80/35/77 85/42/77
f 77/33/78 76/32/78 81/43/78
f 78/38/79 77/37/79 82/44/79
f 79/40/80 78/38/80 83/45/80
f 80/35/81 79/40/81 84/46/81
f 76/32/82 85/42/82 81/43/82
f 77/33/83 81/43/83 82/47/83
f 78/38/84 82/44/84 83/45/84
f 79/40/85 83/45/85 84/46/85
f 80/35/86 84/46/86 85/42/86
f 81/43/87 85/42/87 86/48/87
f 82/47/88 81/43/88 86/49/88
f 83/45/89 82/44/89 86/50/89
f 84/46/90 83/45/90 86/51/90
f 85/42/91 84/46/91 86/52/91
f 87/31/92 88/32/92 89/33/92
f 88/32/93 87/34/93 92/35/93
f 87/36/94 89/37/94 90/38/94
f 87/39/95 90/38/95 91/40/95
f 87/41/96 91/40/96 92/35/96
f 88/32/97 92/35/97 97/42/97
f 89/33/98 88/32/98 93/43/98
f 90/38/99 89/37/99 94/44/99
f 91/40/100 90/38/100 95/45/100
f 92/35/101 91/40/101 96/46/101
f 88/32/102 97/42/102 93/43/102
f 89/33/103 93/43/103 94/47/103
f 90/38/104 94/44/104 95/45/104
f 91/40/105 95/45/105 96/46/105
f 92/35/106 96/46/106 97/42/106
f 93/43/107 97/42/107 98/48/107
f 94/47/108 93/43/108 98/49/108
f 95/45/109 94/44/109 98/50/109
f 96/46/110 95/45/110 98/51/110
f 97/42/111 96/46/111 98/52/111
f 9/3/118 10/1/118 12/13/118
f 12/13/119 16/4/119 15/5/119
f 15/5/120 16/4/120 14/6/120
f 13/7/121 14/6/121 10/8/121
f 11/10/122 15/5/122 13/7/122
f 16/4/123 12/14/123 10/12/123
usemtl fam_black
f 18/1/13 19/2/13 17/3/13
f 20/13/14 23/5/14 19/2/14
f 24/4/15 21/7/15 23/5/15
f 22/6/16 17/9/16 21/7/16
f 23/5/17 17/11/17 19/10/17
f 20/14/18 22/6/18 24/4/18
f 18/1/13 20/13/13 19/2/13
f 20/13/14 24/4/14 23/5/14
f 24/4/15 22/6/15 21/7/15
f 22/6/16 18/8/16 17/9/16
f 23/5/17 21/7/17 17/11/17
f 20/14/18 18/12/18 22/6/18
usemtl fam_ember_emit
f 26/1/13 27/2/13 25/3/13
f 28/13/14 31/5/14 27/2/14
f 32/4/15 29/7/15 31/5/15
f 30/6/16 25/9/16 29/7/16
f 31/5/17 25/11/17 27/10/17
f 28/14/18 30/6/18 32/4/18
f 26/1/13 28/13/13 27/2/13
f 28/13/14 32/4/14 31/5/14
f 32/4/15 30/6/15 29/7/15
f 30/6/16 26/8/16 25/9/16
f 31/5/17 29/7/17 25/11/17
f 28/14/18 26/12/18 30/6/18
