# Blender 5.1.2
# www.blender.org
mtllib TreeOak.mtl
o TreeOak
v -0.492796 0.060132 -1.116361
v -0.328257 8.391436 -0.527803
v 0.381911 0.000000 -0.879098
v 0.041390 8.397348 -0.484743
v 0.659108 0.064967 0.085124
v 0.191893 8.368877 0.039611
v 0.190026 0.012519 0.808472
v -0.217461 8.597889 0.281718
v -0.899850 0.107188 0.854047
v -0.559112 8.569365 0.137450
v -1.432380 0.168808 0.144878
v -0.697096 8.543974 0.054983
v -1.103980 0.017385 -0.853020
v -0.656371 8.411371 -0.501317
v -0.142090 5.856184 -0.396567
v 1.505761 7.812582 -1.554666
v 0.154269 5.743000 -0.205552
v 1.604548 7.774854 -1.490994
v 0.175520 5.945858 0.103515
v 1.611632 7.842474 -1.387972
v -0.107705 6.184414 0.103515
v 1.517223 7.921992 -1.387972
v -0.303998 6.128993 -0.205552
v 1.451792 7.903518 -1.490994
v -0.757850 7.600981 0.099285
v 2.650147 9.578034 1.774127
v -1.752815 9.669691 2.956688
v -3.639573 9.698603 -0.566001
v -1.506455 9.604170 -2.833138
v 1.945985 9.585827 -1.646928
v 0.954408 12.447437 2.658526
v -3.304041 11.826086 2.151551
v -2.597812 11.855034 -1.740216
v 0.205713 11.764538 -2.877352
v 2.779972 11.967051 0.145102
v 0.016914 14.009459 0.141267
v -0.753423 8.254423 1.613804
v 1.435588 7.995941 0.895038
v 0.437564 9.102937 3.044742
v 3.196235 8.855947 -0.094668
v 1.168596 8.157310 -1.581486
v -2.121266 7.871414 0.210952
v -2.755211 9.029339 2.087243
v -1.075321 7.851975 -1.719904
v -3.351267 9.317890 -2.409795
v 1.003870 9.516161 -3.126895
v 3.451752 10.780161 0.866891
v 3.129723 10.669016 -1.047117
v -0.170462 11.022495 3.791008
v 1.795757 11.001541 2.717019
v -3.735405 10.573158 1.303970
v -2.987454 11.098282 3.241891
v -2.448795 10.970747 -3.561053
v -4.036052 11.076702 -1.722068
v 1.747063 10.625903 -2.755229
v -0.676972 10.449863 -3.714005
v 2.349844 12.129862 1.239768
v -1.084515 12.332748 2.734974
v -3.128789 12.585279 -0.049680
v -1.762716 12.108854 -3.557914
v 1.704195 12.510923 -2.345816
v 0.382796 13.233320 1.434139
v 1.207871 13.663345 0.004120
v -1.498238 13.281719 1.219974
v -1.981309 12.955856 -1.664779
v 0.523306 13.361500 -1.774441
v 2.195927 7.098289 -1.723887
v 3.712986 8.465571 -0.486399
v 1.775074 8.298212 0.612662
v 0.099945 8.518352 -1.633699
v 1.508680 8.502497 -3.617547
v 3.963816 8.058485 -2.743456
v 2.801771 10.396076 0.706403
v 0.589610 10.563381 -0.328397
v 0.724101 10.447716 -2.921476
v 2.536581 10.656785 -3.345083
v 4.124539 10.598423 -1.430678
v 2.321570 11.511557 -1.367552
v 1.579928 6.886290 -0.282229
v 3.176244 7.157776 -0.758916
v 2.552130 7.678171 0.567065
v 4.432168 8.046891 -1.804483
v 2.895655 6.965586 -2.121036
v 0.767047 7.074618 -1.321642
v 0.300833 8.112744 -0.226318
v 1.730512 7.132472 -2.802749
v 0.536116 7.870739 -3.020930
v 2.471484 7.920549 -3.543591
v 4.606569 9.517296 -0.623568
v 4.070594 9.216905 -2.396339
v 2.017429 9.397858 0.476446
v 3.309875 9.334970 0.297678
v -0.443368 9.327602 -0.607100
v 0.908422 9.201830 0.320254
v 0.752629 9.519931 -3.389194
v 0.206406 8.920759 -2.354108
v 3.473603 9.133854 -3.768918
v 1.870593 9.404559 -3.791008
v 3.870001 10.594141 -0.291647
v 1.703532 10.739552 -0.032151
v 0.075934 10.805425 -1.848022
v 1.779332 10.568293 -3.732113
v 3.792601 10.595184 -3.066501
v 2.688201 10.995474 -0.250876
v 3.237183 11.332031 -1.689684
v 0.923469 11.596012 -0.677899
v 0.834481 11.471365 -2.665252
v 2.584905 11.406779 -3.168216
v -2.385074 7.652682 1.009656
v -0.581929 8.550678 1.963723
v -2.720296 8.513815 2.957418
v -4.599653 8.418468 1.056319
v -3.145301 8.810038 -0.851901
v -0.673899 8.359497 0.183418
v -1.957755 10.790325 2.876850
v -3.784238 10.632792 1.931238
v -3.887417 10.459580 0.053919
v -1.988760 10.644424 -0.804458
v -0.416287 10.528901 1.131728
v -2.561783 11.827444 0.865108
v -2.599154 7.622395 1.952338
v -1.721625 8.017010 1.871008
v -1.649137 8.639780 2.878788
v -0.656958 8.207407 0.833473
v -1.328570 7.710113 0.090479
v -3.568136 7.618883 1.296222
v -4.064347 8.193687 2.277079
v -2.882194 7.775962 0.227963
v -3.955640 8.744767 0.150383
v -1.952929 8.714187 -0.711717
v -0.176757 9.675314 1.440890
v -0.105903 9.753870 0.667106
v -2.506558 9.776253 3.346548
v -0.975510 9.520340 2.918845
v -4.606570 9.678661 1.460813
v -3.830040 9.327772 2.798898
v -3.823967 9.904171 -0.692801
v -4.241457 9.772148 0.363169
v -1.284123 9.918983 -0.814245
v -2.621283 9.912173 -1.378881
v -0.993092 11.055069 1.950868
v -3.195622 10.806339 2.841404
v -4.064085 10.905878 1.211096
v -2.845221 10.894979 -0.917322
v -0.682536 10.774467 -0.086874
v -2.074889 11.428750 2.207391
v -1.266649 11.228698 1.131737
v -3.390707 11.330135 1.453836
v -3.022129 11.422993 0.183681
v -2.228491 11.738987 -0.260089
v 0.175555 10.987567 1.465911
v 1.394259 11.907111 2.466390
v -0.221888 11.803881 2.717896
v -0.952802 11.613626 1.699361
v -0.148092 11.801661 0.296440
v 1.148889 11.439507 0.592802
v 0.666605 12.761150 2.900589
v -0.826206 12.863771 2.581211
v -0.997754 12.829222 0.983916
v 0.349052 12.789492 0.168653
v 1.300296 13.194408 1.795947
v 0.174167 14.037893 1.430660
vn 0.2650 0.0560 -0.9626
vn 0.9588 0.0520 -0.2792
vn 0.8363 0.0500 0.5460
vn 0.0472 0.0634 0.9969
vn -0.7934 0.0830 0.6030
vn 0.3399 0.8991 -0.2758
vn -0.9450 0.0638 -0.3207
vn -0.3985 0.0596 -0.9152
vn -0.2151 -0.9736 0.0769
vn 0.2336 -0.6334 -0.7377
vn 0.8556 -0.4578 0.2417
vn 0.3425 0.4067 0.8469
vn 0.5653 0.6712 -0.4794
vn -0.5966 0.7653 0.2417
vn -0.6639 0.1225 -0.7377
vn -0.5654 -0.6712 0.4794
vn 0.0216 -0.9180 0.3960
vn 0.5808 -0.6878 0.4355
vn -0.1480 -0.9079 0.3922
vn -0.2014 -0.9745 -0.0993
vn 0.1428 -0.9768 -0.1597
vn 0.8768 -0.3030 0.3733
vn -0.1391 -0.3968 0.9073
vn -0.8688 -0.4641 0.1725
vn -0.1118 -0.5261 -0.8430
vn 0.7923 -0.3675 -0.4871
vn 0.7455 0.0059 0.6665
vn -0.1885 -0.3463 0.9190
vn -0.9713 -0.2307 0.0581
vn -0.2376 -0.5792 -0.7798
vn 0.6974 -0.4559 -0.5530
vn 0.4893 0.8197 0.2977
vn -0.3219 0.7603 0.5642
vn -0.7698 0.4614 -0.4411
vn 0.3605 0.4805 -0.7995
vn 0.7297 0.6621 -0.1706
vn 0.2431 0.9366 -0.2525
vn 0.4497 0.8358 -0.3149
vn 0.0098 0.5669 -0.8237
vn -0.1646 0.9203 -0.3548
vn -0.1630 0.8934 -0.4186
vn -0.8204 0.4807 -0.3098
vn -0.4478 0.8938 -0.0260
vn -0.3630 0.9307 -0.0443
vn -0.5322 0.8125 0.2379
vn -0.0375 0.8520 0.5221
vn -0.0396 0.8419 0.5382
vn -0.0264 0.8356 0.5487
vn 0.2973 0.8534 0.4282
vn 0.4629 0.7391 0.4894
vn 0.7140 0.6767 0.1799
vn 0.8438 0.4682 -0.2622
vn 0.7662 0.1530 -0.6241
vn 0.2315 0.2115 -0.9496
vn 0.3590 0.3175 -0.8777
vn -0.0724 0.0464 -0.9963
vn -0.8150 0.4922 -0.3057
vn -0.4251 0.7747 -0.4682
vn -0.9127 0.3786 0.1537
vn -0.9512 0.3071 0.0302
vn -0.3238 0.7408 0.5885
vn -0.1443 0.5580 0.8172
vn -0.0059 0.6250 0.7806
vn 0.6909 0.4257 0.5843
vn 0.7025 0.4135 0.5793
vn 0.7844 0.5791 0.2221
vn 0.3237 0.3437 -0.8815
vn 0.3626 0.0684 -0.9294
vn -0.1099 -0.6633 -0.7403
vn -0.4356 0.7952 -0.4218
vn -0.7576 -0.0402 -0.6515
vn -0.9389 -0.3352 -0.0776
vn -0.9371 0.0955 0.3358
vn -0.8483 -0.3275 0.4161
vn -0.3767 -0.4833 0.7903
vn 0.4596 0.3012 0.8355
vn 0.4694 -0.1868 0.8630
vn 0.5214 -0.2312 0.8214
vn 0.8986 0.4025 -0.1746
vn 0.9854 -0.0494 -0.1629
vn 0.6511 -0.3341 -0.6815
vn 0.7672 -0.4389 -0.4677
vn 0.1410 -0.7360 -0.6622
vn -0.1159 -0.5528 -0.8252
vn -0.1043 -0.5515 -0.8276
vn -0.4709 -0.8471 -0.2465
vn -0.7713 -0.6363 0.0108
vn -0.7868 -0.6075 0.1090
vn -0.2257 -0.8613 0.4553
vn -0.1216 -0.7271 0.6757
vn 0.6288 -0.3734 -0.6820
vn 0.3899 -0.9152 -0.1017
vn 0.2066 -0.9747 -0.0858
vn -0.2188 -0.7485 0.6260
vn 0.0528 -0.8776 0.4764
vn 0.4707 -0.6762 0.5667
vn 0.1426 -0.9862 -0.0841
vn 0.7374 -0.4139 0.5338
vn -0.0279 -0.9872 -0.1571
vn 0.0068 -0.9994 -0.0346
vn -0.1644 -0.9856 0.0397
vn 0.6785 -0.5072 0.5313
vn 0.1322 0.0931 0.9868
vn -0.8479 -0.5293 -0.0315
vn -0.4514 -0.1376 -0.8816
vn 0.4438 -0.5042 -0.7408
vn 0.5692 -0.3892 0.7242
vn -0.1649 0.1570 0.9737
vn -0.9230 -0.2614 -0.2824
vn -0.3419 -0.0434 -0.9387
vn 0.9156 0.0356 -0.4004
vn 0.2967 0.8248 0.4813
vn -0.2938 0.3903 0.8726
vn -0.7989 0.2257 -0.5576
vn 0.4308 0.1808 -0.8842
vn 0.6544 0.7441 -0.1343
vn 0.1819 0.9828 -0.0306
vn 0.5577 0.8042 -0.2054
vn 0.2215 0.2103 -0.9522
vn 0.0210 0.9983 -0.0550
vn -0.1838 0.6640 -0.7248
vn -0.6073 0.2539 -0.7528
vn 0.0288 0.9975 -0.0639
vn -0.6697 0.7425 -0.0166
vn -0.8502 0.3933 0.3500
vn 0.2259 0.9104 0.3466
vn 0.0167 0.6116 0.7910
vn -0.0987 0.8381 0.5365
vn 0.2898 0.9015 0.3215
vn 0.3139 0.8909 0.3282
vn 0.6067 0.7828 0.1385
vn 0.9750 0.1004 -0.1981
vn 0.9172 -0.0087 -0.3984
vn 0.2179 0.3838 -0.8974
vn 0.4462 0.0801 -0.8913
vn -0.3362 0.0213 -0.9415
vn -0.5960 0.3468 -0.7242
vn -0.8400 0.0857 -0.5358
vn -0.9345 0.0305 -0.3547
vn -0.7571 0.5552 0.3443
vn -0.2923 0.3547 0.8881
vn -0.1861 0.3099 0.9324
vn -0.5025 0.2012 0.8408
vn 0.6779 0.0419 0.7339
vn 0.5616 0.1324 0.8167
vn 0.8367 0.5141 0.1889
vn 0.0645 0.3042 -0.9504
vn -0.0152 -0.1704 -0.9853
vn -0.0312 -0.1767 -0.9838
vn -0.9085 0.1655 -0.3837
vn -0.8876 0.0137 -0.4604
vn -0.9608 -0.1561 -0.2292
vn -0.5296 0.2606 0.8073
vn -0.5691 -0.0925 0.8170
vn -0.4709 -0.1716 0.8654
vn 0.1156 -0.3083 0.9442
vn 0.1410 0.0958 0.9854
vn 0.7354 -0.2329 0.6363
vn 0.9322 0.1822 -0.3127
vn 0.9418 0.1354 -0.3077
vn 0.8939 0.0510 -0.4453
vn 0.3825 -0.7103 -0.5909
vn 0.2338 -0.7736 -0.5890
vn -0.2546 -0.5244 -0.8125
vn -0.1715 -0.5240 -0.8343
vn -0.4529 -0.8294 -0.3270
vn -0.8981 -0.4324 -0.0805
vn -0.9085 -0.4178 0.0093
vn -0.6337 -0.6779 0.3728
vn -0.3978 -0.4513 0.7988
vn 0.5894 -0.7488 -0.3032
vn 0.5760 -0.8175 -0.0033
vn -0.0964 -0.9826 0.1585
vn -0.3292 -0.4726 0.8175
vn 0.2811 -0.8410 0.4623
vn 0.7495 -0.4151 0.5157
vn 0.4143 -0.9078 0.0649
vn 0.3951 -0.8860 0.2428
vn 0.0220 -0.9994 -0.0271
vn -0.0082 -0.9886 -0.1507
vn -0.0529 -0.9910 -0.1227
vn 0.9454 -0.3240 0.0357
vn 0.1057 -0.3092 0.9451
vn -0.9168 -0.1266 0.3787
vn -0.7152 -0.3562 -0.6014
vn 0.4766 -0.3338 -0.8133
vn 0.8796 -0.1008 0.4648
vn -0.3032 -0.2334 0.9239
vn -0.9471 0.0934 -0.3071
vn -0.4867 -0.1775 -0.8553
vn 0.7735 -0.0979 -0.6262
vn 0.3845 0.7007 0.6009
vn -0.7034 0.6266 0.3354
vn -0.6717 0.6509 -0.3536
vn 0.2500 0.4745 -0.8440
vn 0.6353 0.7720 0.0168
vn 0.4106 0.9104 0.0500
vn 0.5332 0.8440 -0.0590
vn 0.3862 0.4772 -0.7894
vn -0.4584 0.8651 -0.2038
vn -0.5322 0.7269 -0.4341
vn -0.6500 0.6392 -0.4110
vn -0.5650 0.8185 -0.1041
vn -0.5090 0.8566 -0.0851
vn -0.5852 0.6563 0.4763
vn -0.2752 0.8898 0.3641
vn -0.2800 0.8845 0.3732
vn -0.0104 0.7227 0.6911
vn 0.3945 0.9100 0.1272
vn 0.3430 0.9356 0.0838
vn 0.6347 0.7712 -0.0485
vn 0.8980 0.4258 -0.1104
vn 0.7814 -0.0192 -0.6237
vn 0.4082 0.4075 -0.8169
vn 0.2464 0.4574 -0.8544
vn -0.4768 0.2823 -0.8325
vn -0.6774 0.5615 -0.4752
vn -0.9001 0.3424 -0.2695
vn -0.8998 0.3428 -0.2701
vn -0.7710 0.4354 0.4647
vn -0.8184 0.3378 0.4649
vn -0.4222 0.1555 0.8931
vn -0.0203 0.4292 0.9030
vn 0.5513 0.4496 0.7028
vn 0.8223 0.3102 0.4770
vn 0.8545 0.3713 0.3632
vn 0.3610 0.3623 -0.8593
vn 0.3743 -0.2829 -0.8831
vn 0.0676 -0.4564 -0.8872
vn -0.8942 0.3195 -0.3136
vn -0.9082 -0.1738 -0.3808
vn -0.7944 -0.0968 -0.5996
vn -0.7517 0.3832 0.5367
vn -0.8692 -0.0469 0.4922
vn -0.3639 -0.3262 0.8724
vn 0.3001 0.2624 0.9171
vn 0.2286 -0.2180 0.9488
vn 0.5566 -0.4573 0.6936
vn 0.9442 0.3076 0.1177
vn 0.9425 -0.3301 0.0528
vn 0.9332 -0.3438 -0.1048
vn 0.4677 -0.3557 -0.8092
vn -0.0941 -0.6565 -0.7485
vn 0.0238 -0.7191 -0.6945
vn -0.5613 -0.6618 -0.4969
vn -0.5735 -0.6729 -0.4672
vn -0.4234 -0.7137 -0.5580
vn -0.6264 -0.7681 0.1332
vn -0.2591 -0.8848 0.3874
vn -0.1487 -0.7487 0.6461
vn 0.7056 -0.6857 -0.1788
vn 0.3924 -0.8880 0.2397
vn 0.2394 -0.9466 0.2160
vn 0.1351 -0.7331 0.6665
vn 0.3991 -0.7925 0.4611
vn 0.3408 -0.8105 0.4764
vn 0.1406 -0.8083 0.5717
vn 0.5190 -0.8428 0.1424
vn -0.3718 -0.8272 0.4213
vn -0.5069 -0.7669 -0.3936
vn -0.1064 -0.8296 -0.5481
vn 0.9914 0.0042 -0.1309
vn 0.1657 -0.3311 0.9289
vn -0.7322 -0.3415 0.5892
vn -0.8007 -0.3256 -0.5029
vn 0.1627 -0.2067 -0.9648
vn 0.7472 0.3491 0.5656
vn -0.2087 0.0071 0.9779
vn -0.9940 0.0257 0.1062
vn -0.5091 0.1465 -0.8482
vn 0.7894 0.2993 -0.5359
vn 0.3957 0.7549 0.5231
vn -0.0928 0.7361 0.6705
vn -0.7281 0.6825 0.0634
vn -0.3897 0.6271 -0.6744
vn 0.6156 0.6012 -0.5095
vn 0.1144 0.0678 -0.9911
vn 0.9606 0.0526 -0.2729
vn 0.5391 0.0770 0.8387
vn -0.3939 0.0933 0.9144
vn -0.5197 0.0548 0.8526
vn -0.0230 0.9979 0.0608
vn 0.0406 0.9726 -0.2289
vn -0.0193 0.9642 -0.2646
vn 0.0249 0.9679 -0.2502
vn -0.9919 0.0861 -0.0931
vn -0.0759 0.0718 -0.9945
vn 0.0877 -0.9953 0.0419
vn -0.0936 -0.9912 0.0937
vn 0.0475 -0.9980 -0.0415
vn -0.0863 -0.9963 0.0060
vn 0.5654 0.6712 -0.4794
vt 1.000000 0.500000
vt 0.857143 1.000000
vt 0.857143 0.500000
vt 0.714286 0.500000
vt 0.714286 1.000000
vt 0.571429 0.500000
vt 0.571429 1.000000
vt 0.428571 0.500000
vt 0.428571 1.000000
vt 0.285714 0.500000
vt 0.354132 0.033767
vt 0.483983 0.196595
vt 0.250000 0.490000
vt 0.142857 1.000000
vt 0.142857 0.500000
vt 0.000000 0.500000
vt 0.645868 0.033767
vt 0.516017 0.196595
vt 0.562360 0.399638
vt 1.000000 1.000000
vt 0.800000 0.500000
vt 0.800000 1.000000
vt 0.600000 0.500000
vt 0.400000 1.000000
vt 0.400000 0.500000
vt 0.021746 0.324164
vt 0.108932 0.055836
vt 0.391068 0.055836
vt 0.200000 0.500000
vt 0.200000 1.000000
vt 0.978254 0.324164
vt 0.891068 0.055836
vt 0.608932 0.055836
vt 0.181819 0.000000
vt 0.227273 0.078731
vt 0.136365 0.078731
vt 0.272728 0.157461
vt 0.318182 0.078731
vt 0.363637 0.157461
vt 0.909091 0.000000
vt 0.954545 0.078731
vt 0.863636 0.078731
vt 0.727273 0.000000
vt 0.772727 0.078731
vt 0.681818 0.078731
vt 0.545455 0.000000
vt 0.590909 0.078731
vt 0.500000 0.078731
vt 0.318182 0.236191
vt 0.090910 0.157461
vt 0.181819 0.157461
vt 0.136365 0.236191
vt 0.818182 0.157461
vt 0.909091 0.157461
vt 0.863636 0.236191
vt 0.636364 0.157461
vt 0.727273 0.157461
vt 0.681818 0.236191
vt 0.454546 0.157461
vt 0.545455 0.157461
vt 0.500000 0.236191
vt 0.227273 0.236191
vt 0.045455 0.236191
vt 0.772727 0.236191
vt 0.590909 0.236191
vt 0.409092 0.236191
vt 0.181819 0.314921
vt 0.272728 0.314921
vt 0.227273 0.393651
vt 0.000000 0.314921
vt 0.090910 0.314921
vt 0.045455 0.393651
vt 0.727273 0.314921
vt 0.818182 0.314921
vt 0.772727 0.393651
vt 0.545455 0.314921
vt 0.636364 0.314921
vt 0.590909 0.393651
vt 0.363637 0.314921
vt 0.454546 0.314921
vt 0.409092 0.393651
vt 0.500000 0.393651
vt 0.454546 0.472382
vt 0.681818 0.393651
vt 0.636364 0.472382
vt 0.863636 0.393651
vt 0.818182 0.472382
vt 0.909091 0.314921
vt 0.136365 0.393651
vt 0.090910 0.472382
vt 0.318182 0.393651
vt 0.272728 0.472382
vt 0.954545 0.236191
vt 1.000000 0.157461
vt 0.409092 0.078731
vt 0.363637 0.000000
vt 0.285714 1.000000
vt 0.437640 0.399638
vt 0.062360 0.399638
vt 0.016017 0.196595
vt 0.145868 0.033767
vt 0.000000 1.000000
vt 0.750000 0.490000
vt 0.937640 0.399638
vt 0.983983 0.196595
vt 0.854132 0.033767
vt 0.600000 1.000000
vt 0.478254 0.324164
vt 0.521746 0.324164
s 0
usemtl fam_wood
f 1/1/1 4/2/1 3/3/1
f 4/2/2 5/4/2 3/3/2
f 6/5/3 7/6/3 5/4/3
f 8/7/4 9/8/4 7/6/4
f 10/9/5 11/10/5 9/8/5
f 8/11/6 6/12/6 2/13/6
f 11/10/7 14/14/7 13/15/7
f 14/14/8 1/16/8 13/15/8
f 9/17/9 11/18/9 13/19/9
f 1/1/277 2/20/277 4/2/277
f 4/2/278 6/5/278 5/4/278
f 6/5/279 8/7/279 7/6/279
f 8/7/280 10/9/280 9/8/280
f 10/9/281 12/97/281 11/10/281
f 6/12/282 4/98/282 2/13/282
f 2/13/283 14/99/283 12/100/283
f 12/100/284 10/101/284 2/13/284
f 10/101/285 8/11/285 2/13/285
f 11/10/286 12/97/286 14/14/286
f 14/14/287 2/102/287 1/16/287
f 13/19/288 1/103/288 9/17/288
f 1/103/289 3/104/289 5/105/289
f 7/106/290 1/103/290 5/105/290
f 7/106/291 9/17/291 1/103/291
usemtl fam_wood_dark
f 16/20/10 17/21/10 15/1/10
f 18/22/11 19/23/11 17/21/11
f 19/23/12 22/24/12 21/25/12
f 24/26/13 22/27/13 20/28/13
f 22/24/14 23/29/14 21/25/14
f 24/30/15 15/16/15 23/29/15
f 17/31/16 19/32/16 21/33/16
f 16/20/10 18/22/10 17/21/10
f 18/22/11 20/107/11 19/23/11
f 19/23/12 20/107/12 22/24/12
f 20/28/292 18/108/292 16/13/292
f 16/13/292 24/26/292 20/28/292
f 22/24/14 24/30/14 23/29/14
f 24/30/15 16/102/15 15/16/15
f 23/109/16 15/103/16 21/33/16
f 15/103/16 17/31/16 21/33/16
usemtl fam_leaf
f 25/34/17 38/35/17 37/36/17
f 26/37/18 38/38/18 40/39/18
f 25/40/19 37/41/19 42/42/19
f 25/43/20 42/44/20 44/45/20
f 25/46/21 44/47/21 41/48/21
f 26/37/22 40/39/22 47/49/22
f 27/50/23 39/51/23 49/52/23
f 28/53/24 43/54/24 51/55/24
f 29/56/25 45/57/25 53/58/25
f 30/59/26 46/60/26 55/61/26
f 26/37/27 47/49/27 50/62/27
f 27/50/28 49/52/28 52/63/28
f 28/53/29 51/55/29 54/64/29
f 29/56/30 53/58/30 56/65/30
f 30/59/31 55/61/31 48/66/31
f 31/67/32 57/68/32 62/69/32
f 32/70/33 58/71/33 64/72/33
f 33/73/34 59/74/34 65/75/34
f 34/76/35 60/77/35 66/78/35
f 35/79/36 61/80/36 63/81/36
f 63/81/37 66/82/37 36/83/37
f 63/81/38 61/80/38 66/82/38
f 61/80/39 34/76/39 66/82/39
f 66/78/40 65/84/40 36/85/40
f 66/78/41 60/77/41 65/84/41
f 60/77/42 33/73/42 65/84/42
f 65/75/43 64/86/43 36/87/43
f 65/75/44 59/74/44 64/86/44
f 59/74/45 32/88/45 64/86/45
f 64/72/46 62/89/46 36/90/46
f 64/72/47 58/71/47 62/89/47
f 58/71/48 31/67/48 62/89/48
f 62/69/49 63/91/49 36/92/49
f 62/69/50 57/68/50 63/91/50
f 57/68/51 35/79/51 63/91/51
f 48/66/52 61/80/52 35/79/52
f 48/66/53 55/61/53 61/80/53
f 55/61/54 34/76/54 61/80/54
f 56/65/55 60/77/55 34/76/55
f 56/65/56 53/58/56 60/77/56
f 53/58/57 33/73/57 60/77/57
f 54/64/58 59/74/58 33/73/58
f 54/64/59 51/55/59 59/74/59
f 51/55/60 32/88/60 59/74/60
f 52/63/61 58/71/61 32/70/61
f 52/63/62 49/52/62 58/71/62
f 49/52/63 31/67/63 58/71/63
f 50/62/64 57/68/64 31/67/64
f 50/62/65 47/49/65 57/68/65
f 47/49/66 35/79/66 57/68/66
f 55/61/67 56/65/67 34/76/67
f 55/61/68 46/60/68 56/65/68
f 46/60/69 29/56/69 56/65/69
f 53/58/70 54/64/70 33/73/70
f 53/58/71 45/57/71 54/64/71
f 45/57/72 28/53/72 54/64/72
f 51/55/73 52/93/73 32/88/73
f 51/55/74 43/54/74 52/93/74
f 43/54/75 27/94/75 52/93/75
f 49/52/76 50/62/76 31/67/76
f 49/52/77 39/51/77 50/62/77
f 39/51/78 26/37/78 50/62/78
f 47/49/79 48/66/79 35/79/79
f 47/49/80 40/39/80 48/66/80
f 40/39/81 30/59/81 48/66/81
f 41/48/82 46/60/82 30/59/82
f 41/48/83 44/47/83 46/60/83
f 44/47/84 29/56/84 46/60/84
f 44/45/85 45/57/85 29/56/85
f 44/45/86 42/44/86 45/57/86
f 42/44/87 28/53/87 45/57/87
f 42/42/88 43/54/88 28/53/88
f 42/42/89 37/41/89 43/54/89
f 37/41/90 27/94/90 43/54/90
f 40/39/91 41/95/91 30/59/91
f 40/39/92 38/38/92 41/95/92
f 38/38/93 25/96/93 41/95/93
f 37/36/94 39/51/94 27/50/94
f 37/36/95 38/35/95 39/51/95
f 38/35/96 26/37/96 39/51/96
f 109/34/177 122/35/177 121/36/177
f 110/37/178 122/38/178 124/39/178
f 109/40/179 121/41/179 126/42/179
f 109/43/180 126/44/180 128/45/180
f 109/46/181 128/47/181 125/48/181
f 110/37/182 124/39/182 131/49/182
f 111/50/183 123/51/183 133/52/183
f 112/53/184 127/54/184 135/55/184
f 113/56/185 129/57/185 137/58/185
f 114/59/186 130/60/186 139/61/186
f 110/37/187 131/49/187 134/62/187
f 111/50/188 133/52/188 136/63/188
f 112/53/189 135/55/189 138/64/189
f 113/56/190 137/58/190 140/65/190
f 114/59/191 139/61/191 132/66/191
f 115/67/192 141/68/192 146/69/192
f 116/70/193 142/71/193 148/72/193
f 117/73/194 143/74/194 149/75/194
f 118/76/195 144/77/195 150/78/195
f 119/79/196 145/80/196 147/81/196
f 147/81/197 150/82/197 120/83/197
f 147/81/198 145/80/198 150/82/198
f 145/80/199 118/76/199 150/82/199
f 150/78/200 149/84/200 120/85/200
f 150/78/201 144/77/201 149/84/201
f 144/77/202 117/73/202 149/84/202
f 149/75/203 148/86/203 120/87/203
f 149/75/204 143/74/204 148/86/204
f 143/74/205 116/88/205 148/86/205
f 148/72/206 146/89/206 120/90/206
f 148/72/207 142/71/207 146/89/207
f 142/71/208 115/67/208 146/89/208
f 146/69/209 147/91/209 120/92/209
f 146/69/210 141/68/210 147/91/210
f 141/68/211 119/79/211 147/91/211
f 132/66/212 145/80/212 119/79/212
f 132/66/213 139/61/213 145/80/213
f 139/61/214 118/76/214 145/80/214
f 140/65/215 144/77/215 118/76/215
f 140/65/216 137/58/216 144/77/216
f 137/58/217 117/73/217 144/77/217
f 138/64/218 143/74/218 117/73/218
f 138/64/219 135/55/219 143/74/219
f 135/55/220 116/88/220 143/74/220
f 136/63/221 142/71/221 116/70/221
f 136/63/222 133/52/222 142/71/222
f 133/52/223 115/67/223 142/71/223
f 134/62/224 141/68/224 115/67/224
f 134/62/225 131/49/225 141/68/225
f 131/49/226 119/79/226 141/68/226
f 139/61/227 140/65/227 118/76/227
f 139/61/228 130/60/228 140/65/228
f 130/60/229 113/56/229 140/65/229
f 137/58/230 138/64/230 117/73/230
f 137/58/231 129/57/231 138/64/231
f 129/57/232 112/53/232 138/64/232
f 135/55/233 136/93/233 116/88/233
f 135/55/234 127/54/234 136/93/234
f 127/54/235 111/94/235 136/93/235
f 133/52/236 134/62/236 115/67/236
f 133/52/237 123/51/237 134/62/237
f 123/51/238 110/37/238 134/62/238
f 131/49/239 132/66/239 119/79/239
f 131/49/240 124/39/240 132/66/240
f 124/39/241 114/59/241 132/66/241
f 125/48/242 130/60/242 114/59/242
f 125/48/243 128/47/243 130/60/243
f 128/47/244 113/56/244 130/60/244
f 128/45/245 129/57/245 113/56/245
f 128/45/246 126/44/246 129/57/246
f 126/44/247 112/53/247 129/57/247
f 126/42/248 127/54/248 112/53/248
f 126/42/249 121/41/249 127/54/249
f 121/41/250 111/94/250 127/54/250
f 124/39/251 125/95/251 114/59/251
f 124/39/252 122/38/252 125/95/252
f 122/38/253 109/96/253 125/95/253
f 121/36/254 123/51/254 111/50/254
f 121/36/255 122/35/255 123/51/255
f 122/35/256 110/37/256 123/51/256
usemtl fam_leaf_light
f 67/34/97 80/35/97 79/36/97
f 68/37/98 80/38/98 82/39/98
f 67/40/99 79/41/99 84/42/99
f 67/43/100 84/44/100 86/45/100
f 67/46/101 86/47/101 83/48/101
f 68/37/102 82/39/102 89/49/102
f 69/50/103 81/51/103 91/52/103
f 70/53/104 85/54/104 93/55/104
f 71/56/105 87/57/105 95/58/105
f 72/59/106 88/60/106 97/61/106
f 68/37/107 89/49/107 92/62/107
f 69/50/108 91/52/108 94/63/108
f 70/53/109 93/55/109 96/64/109
f 71/56/110 95/58/110 98/65/110
f 72/59/111 97/61/111 90/66/111
f 73/67/112 99/68/112 104/69/112
f 74/70/113 100/71/113 106/72/113
f 75/73/114 101/74/114 107/75/114
f 76/76/115 102/77/115 108/78/115
f 77/79/116 103/80/116 105/81/116
f 105/81/117 108/82/117 78/83/117
f 105/81/118 103/80/118 108/82/118
f 103/80/119 76/76/119 108/82/119
f 108/78/120 107/84/120 78/85/120
f 108/78/121 102/77/121 107/84/121
f 102/77/122 75/73/122 107/84/122
f 107/75/123 106/86/123 78/87/123
f 107/75/124 101/74/124 106/86/124
f 101/74/125 74/88/125 106/86/125
f 106/72/126 104/89/126 78/90/126
f 106/72/127 100/71/127 104/89/127
f 100/71/128 73/67/128 104/89/128
f 104/69/129 105/91/129 78/92/129
f 104/69/130 99/68/130 105/91/130
f 99/68/131 77/79/131 105/91/131
f 90/66/132 103/80/132 77/79/132
f 90/66/133 97/61/133 103/80/133
f 97/61/134 76/76/134 103/80/134
f 98/65/135 102/77/135 76/76/135
f 98/65/136 95/58/136 102/77/136
f 95/58/137 75/73/137 102/77/137
f 96/64/138 101/74/138 75/73/138
f 96/64/139 93/55/139 101/74/139
f 93/55/140 74/88/140 101/74/140
f 94/63/141 100/71/141 74/70/141
f 94/63/142 91/52/142 100/71/142
f 91/52/143 73/67/143 100/71/143
f 92/62/144 99/68/144 73/67/144
f 92/62/145 89/49/145 99/68/145
f 89/49/146 77/79/146 99/68/146
f 97/61/147 98/65/147 76/76/147
f 97/61/148 88/60/148 98/65/148
f 88/60/149 71/56/149 98/65/149
f 95/58/150 96/64/150 75/73/150
f 95/58/151 87/57/151 96/64/151
f 87/57/152 70/53/152 96/64/152
f 93/55/153 94/93/153 74/88/153
f 93/55/154 85/54/154 94/93/154
f 85/54/155 69/94/155 94/93/155
f 91/52/156 92/62/156 73/67/156
f 91/52/157 81/51/157 92/62/157
f 81/51/158 68/37/158 92/62/158
f 89/49/159 90/66/159 77/79/159
f 89/49/160 82/39/160 90/66/160
f 82/39/161 72/59/161 90/66/161
f 83/48/162 88/60/162 72/59/162
f 83/48/163 86/47/163 88/60/163
f 86/47/164 71/56/164 88/60/164
f 86/45/165 87/57/165 71/56/165
f 86/45/166 84/44/166 87/57/166
f 84/44/167 70/53/167 87/57/167
f 84/42/168 85/54/168 70/53/168
f 84/42/169 79/41/169 85/54/169
f 79/41/170 69/94/170 85/54/170
f 82/39/171 83/95/171 72/59/171
f 82/39/172 80/38/172 83/95/172
f 80/38/173 67/96/173 83/95/173
f 79/36/174 81/51/174 69/50/174
f 79/36/175 80/35/175 81/51/175
f 80/35/176 68/37/176 81/51/176
f 151/34/257 152/37/257 153/50/257
f 152/37/258 151/96/258 156/59/258
f 151/40/259 153/94/259 154/53/259
f 151/43/260 154/53/260 155/56/260
f 151/46/261 155/56/261 156/59/261
f 152/37/262 156/59/262 161/79/262
f 153/50/263 152/37/263 157/67/263
f 154/53/264 153/94/264 158/88/264
f 155/56/265 154/53/265 159/73/265
f 156/59/266 155/56/266 160/76/266
f 152/37/267 161/79/267 157/67/267
f 153/50/268 157/67/268 158/70/268
f 154/53/269 158/88/269 159/73/269
f 155/56/270 159/73/270 160/76/270
f 156/59/271 160/76/271 161/79/271
f 157/67/272 161/79/272 162/92/272
f 158/70/273 157/67/273 162/90/273
f 159/73/274 158/88/274 162/87/274
f 160/76/275 159/73/275 162/85/275
f 161/79/276 160/76/276 162/83/276
